<?xml version="1.0" encoding="UTF-8"?>
<svg width="29px" height="40px" viewBox="0 0 29 40" version="1.1" xmlns="http://www.w3.org/2000/svg" xmlns:xlink="http://www.w3.org/1999/xlink">
    <!-- Generator: Sketch 44.1 (41455) - http://www.bohemiancoding.com/sketch -->
    <title>marker</title>
    <desc>Created with Sketch.</desc>
    <defs></defs>
    <g id="Story" stroke="none" stroke-width="1" fill="none" fill-rule="evenodd">
        <g transform="translate(-146.000000, -144.000000)" id="Group-8" fill="#50AAF0">
            <g transform="translate(146.000000, 140.000000)">
                <g id="Group-7" transform="translate(0.000000, 4.000000)">
                    <path d="M14.425739,40 C4.80857966,28.2619031 0,19.7371494 0,14.425739 C0,6.45862334 6.45862334,0 14.425739,0 C22.3928546,0 28.851478,6.45862334 28.851478,14.425739 C28.851478,19.7371494 24.0428983,28.2619031 14.425739,40 Z M14.425739,20.1960346 C17.6125852,20.1960346 20.1960346,17.6125852 20.1960346,14.425739 C20.1960346,11.2388927 17.6125852,8.65544339 14.425739,8.65544339 C11.2388927,8.65544339 8.65544339,11.2388927 8.65544339,14.425739 C8.65544339,17.6125852 11.2388927,20.1960346 14.425739,20.1960346 Z" id="marker"></path>
                </g>
            </g>
        </g>
    </g>
</svg>