<?xml version="1.0" encoding="UTF-8"?>
<svg width="28px" height="28px" viewBox="0 0 28 28" version="1.1" xmlns="http://www.w3.org/2000/svg" xmlns:xlink="http://www.w3.org/1999/xlink">
    <!-- Generator: Sketch 44.1 (41455) - http://www.bohemiancoding.com/sketch -->
    <title>teepee</title>
    <desc>Created with Sketch.</desc>
    <defs>
        <filter x="-35.0%" y="-25.0%" width="170.0%" height="170.0%" filterUnits="objectBoundingBox" id="filter-1">
            <feOffset dx="0" dy="2" in="SourceAlpha" result="shadowOffsetOuter1"></feOffset>
            <feGaussianBlur stdDeviation="2" in="shadowOffsetOuter1" result="shadowBlurOuter1"></feGaussianBlur>
            <feColorMatrix values="0 0 0 0 0.274075255   0 0 0 0 0.274075255   0 0 0 0 0.274075255  0 0 0 0.5 0" type="matrix" in="shadowBlurOuter1" result="shadowMatrixOuter1"></feColorMatrix>
            <feMerge>
                <feMergeNode in="shadowMatrixOuter1"></feMergeNode>
                <feMergeNode in="SourceGraphic"></feMergeNode>
            </feMerge>
        </filter>
    </defs>
    <g id="Home" stroke="none" stroke-width="1" fill="none" fill-rule="evenodd">
        <g transform="translate(-98.000000, -1694.000000)" id="teepee">
            <g filter="url(#filter-1)" transform="translate(102.000000, 1696.000000)">
                <polygon id="Mask" fill="#FF7979" points="7 6 10 2.77555756e-17 13 6 12 7 11 6 10 7 9 6 8 7"></polygon>
                <polygon id="Mask" fill="#FF7979" points="10 14 13 20 12 20 10 16 8.20004171 20 7 20"></polygon>
                <polygon id="Path-2" fill="#FFFFFF" points="0 20 7 6 8 7 9 6 10 7 11 6 12 7 13 6 20 20 13 20 10 14 7 20"></polygon>
            </g>
        </g>
    </g>
</svg>