<?xml version="1.0" encoding="UTF-8"?>
<svg width="50px" height="38px" viewBox="0 0 50 38" version="1.1" xmlns="http://www.w3.org/2000/svg" xmlns:xlink="http://www.w3.org/1999/xlink">
    <!-- Generator: Sketch 44.1 (41455) - http://www.bohemiancoding.com/sketch -->
    <title>truck</title>
    <desc>Created with Sketch.</desc>
    <defs>
        <rect id="path-1" x="0" y="0" width="5" height="7"></rect>
        <rect id="path-3" x="0" y="0" width="2" height="9"></rect>
        <rect id="path-5" x="47" y="10" width="1" height="2"></rect>
        <rect id="path-6" x="47" y="12.1000977" width="1" height="2"></rect>
        <rect id="path-7" x="47" y="14.1999512" width="1" height="2"></rect>
    </defs>
    <g id="Home" stroke="none" stroke-width="1" fill="none" fill-rule="evenodd">
        <g transform="translate(-836.000000, -1615.000000)" id="truck">
            <g transform="translate(859.000000, 1633.000000) rotate(-11.000000) translate(-859.000000, -1633.000000) translate(834.000000, 1616.000000)">
                <g id="tire" transform="translate(32.600098, 24.000000)">
                    <circle id="Oval" fill="#221D17" cx="5.14990234" cy="4.75" r="4.75"></circle>
                    <circle id="Oval-4" fill="#323232" cx="5.23700747" cy="5.20533645" r="2.5"></circle>
                    <g id="hubcap" transform="translate(5.625661, 4.933602) rotate(33.000000) translate(-5.625661, -4.933602) translate(3.625661, 2.933602)">
                        <path d="M1.89998782,4.00004888 C1.0163322,4.00004888 0.299987793,3.28370446 0.299987793,2.40004885 C0.299987793,1.51639324 1.0163322,0.800048828 1.89998782,0.800048828 C2.78364343,0.800048828 3.49998784,1.51639324 3.49998784,2.40004885 C3.49998784,3.28370446 2.78364343,4.00004888 1.89998782,4.00004888 Z M1.01800537,1.21673584 L1.32321167,1.51065063 C1.40165202,1.43680827 1.48895264,1.37864176 1.58511353,1.33615112 C1.68127441,1.29366048 1.78335452,1.26247152 1.89135384,1.24258423 L1.89135384,0.882247925 C1.70478193,0.897608439 1.55122375,0.927474976 1.43067932,0.971847534 C1.31013489,1.01622009 1.1725769,1.09784953 1.01800537,1.21673584 Z M2.5562706,0.963143255 L2.41887909,1.36396786 C2.51895332,1.40385183 2.60856491,1.45839083 2.68771386,1.52758487 C2.76686281,1.59677891 2.83827052,1.67611388 2.90193701,1.76558977 L3.22851261,1.61330507 C3.13574256,1.45070513 3.0437778,1.3241563 2.95261832,1.2336586 C2.86145885,1.14316089 2.72934294,1.05298911 2.5562706,0.963143255 Z M3.41783543,2.15325416 L3.0106946,2.27061317 C3.03542379,2.37546568 3.04214715,2.48015349 3.03086468,2.58467658 C3.01958221,2.68919968 2.9955526,2.79319812 2.95877583,2.89667192 L3.27083622,3.07684007 C3.35081958,2.9075838 3.40173349,2.75966525 3.42357795,2.63308443 C3.4454224,2.50650361 3.44350823,2.34656019 3.41783543,2.15325416 Z M2.89140021,3.54893617 L2.59663732,3.24454887 C2.51566769,3.31560873 2.42639027,3.37069305 2.32880506,3.40980184 C2.23121985,3.44891063 2.12811345,3.47651805 2.01948586,3.4926241 L2.00691031,3.8527409 C2.19390464,3.84390101 2.34841159,3.81941177 2.47043117,3.77927318 C2.59245076,3.73913459 2.73277377,3.66235559 2.89140021,3.54893617 Z M1.39307319,3.80827856 L1.53743913,3.40991282 C1.43807621,3.36828839 1.34943011,3.31219376 1.27150082,3.24162892 C1.19357153,3.17106407 1.12355927,3.09049495 1.06146405,2.99992155 L0.732280455,3.14648353 C0.822198616,3.31067777 0.91194079,3.43881233 1.00150698,3.5308872 C1.09107317,3.62296207 1.22159524,3.71542586 1.39307319,3.80827856 Z M0.402901168,2.57724525 L0.820078993,2.50308695 C0.806445344,2.39622392 0.81070167,2.29140682 0.832847971,2.18863565 C0.854994272,2.08586449 0.88976305,1.98494754 0.937154304,1.8858848 L0.64563611,1.67408443 C0.548398809,1.83405296 0.482302115,1.97583924 0.447346029,2.09944327 C0.412389943,2.2230473 0.397574989,2.38231463 0.402901168,2.57724525 Z" id="Combined-Shape" fill="#D8D8D8"></path>
                        <circle id="Oval-3" fill="#2B2026" cx="1.89998782" cy="2.40004885" r="1"></circle>
                        <polygon id="Path-35" fill="#FFCD79" points="1.78251389 2.25541704 1.78251389 2.12310743 2.24225155 2.22190944 2.12867943 2.34986928 2.40892916 2.33854075 2.3525255 2.57825633 2.08886227 2.49613641 2.08886227 2.65612206 1.67171414 2.58786407 1.68289928 2.46736099 1.41980964 2.43911135 1.44528689 2.22214844"></polygon>
                    </g>
                </g>
                <g id="trire" transform="translate(5.000000, 24.000000)">
                    <circle id="Oval" fill="#221D17" cx="5.14990234" cy="4.75" r="4.75"></circle>
                    <circle id="Oval-4" fill="#323232" cx="5.03089283" cy="5.09648779" r="2.5"></circle>
                    <g id="hubcap" transform="translate(3.164334, 2.765097)">
                        <path d="M1.89998782,4.00004888 C1.0163322,4.00004888 0.299987793,3.28370446 0.299987793,2.40004885 C0.299987793,1.51639324 1.0163322,0.800048828 1.89998782,0.800048828 C2.78364343,0.800048828 3.49998784,1.51639324 3.49998784,2.40004885 C3.49998784,3.28370446 2.78364343,4.00004888 1.89998782,4.00004888 Z M1.01800537,1.21673584 L1.32321167,1.51065063 C1.40165202,1.43680827 1.48895264,1.37864176 1.58511353,1.33615112 C1.68127441,1.29366048 1.78335452,1.26247152 1.89135384,1.24258423 L1.89135384,0.882247925 C1.70478193,0.897608439 1.55122375,0.927474976 1.43067932,0.971847534 C1.31013489,1.01622009 1.1725769,1.09784953 1.01800537,1.21673584 Z M2.5562706,0.963143255 L2.41887909,1.36396786 C2.51895332,1.40385183 2.60856491,1.45839083 2.68771386,1.52758487 C2.76686281,1.59677891 2.83827052,1.67611388 2.90193701,1.76558977 L3.22851261,1.61330507 C3.13574256,1.45070513 3.0437778,1.3241563 2.95261832,1.2336586 C2.86145885,1.14316089 2.72934294,1.05298911 2.5562706,0.963143255 Z M3.41783543,2.15325416 L3.0106946,2.27061317 C3.03542379,2.37546568 3.04214715,2.48015349 3.03086468,2.58467658 C3.01958221,2.68919968 2.9955526,2.79319812 2.95877583,2.89667192 L3.27083622,3.07684007 C3.35081958,2.9075838 3.40173349,2.75966525 3.42357795,2.63308443 C3.4454224,2.50650361 3.44350823,2.34656019 3.41783543,2.15325416 Z M2.89140021,3.54893617 L2.59663732,3.24454887 C2.51566769,3.31560873 2.42639027,3.37069305 2.32880506,3.40980184 C2.23121985,3.44891063 2.12811345,3.47651805 2.01948586,3.4926241 L2.00691031,3.8527409 C2.19390464,3.84390101 2.34841159,3.81941177 2.47043117,3.77927318 C2.59245076,3.73913459 2.73277377,3.66235559 2.89140021,3.54893617 Z M1.39307319,3.80827856 L1.53743913,3.40991282 C1.43807621,3.36828839 1.34943011,3.31219376 1.27150082,3.24162892 C1.19357153,3.17106407 1.12355927,3.09049495 1.06146405,2.99992155 L0.732280455,3.14648353 C0.822198616,3.31067777 0.91194079,3.43881233 1.00150698,3.5308872 C1.09107317,3.62296207 1.22159524,3.71542586 1.39307319,3.80827856 Z M0.402901168,2.57724525 L0.820078993,2.50308695 C0.806445344,2.39622392 0.81070167,2.29140682 0.832847971,2.18863565 C0.854994272,2.08586449 0.88976305,1.98494754 0.937154304,1.8858848 L0.64563611,1.67408443 C0.548398809,1.83405296 0.482302115,1.97583924 0.447346029,2.09944327 C0.412389943,2.2230473 0.397574989,2.38231463 0.402901168,2.57724525 Z" id="Combined-Shape" fill="#D8D8D8"></path>
                        <circle id="Oval-3" fill="#2B2026" cx="1.89998782" cy="2.40004885" r="1"></circle>
                        <polygon id="Path-35" fill="#FFCD79" points="1.78251389 2.25541704 1.78251389 2.12310743 2.24225155 2.22190944 2.12867943 2.34986928 2.40892916 2.33854075 2.3525255 2.57825633 2.08886227 2.49613641 2.08886227 2.65612206 1.67171414 2.58786407 1.68289928 2.46736099 1.41980964 2.43911135 1.44528689 2.22214844"></polygon>
                    </g>
                </g>
                <g id="Path-38-+-Path-38-+-Path-38-+-Path-38-+-Path-38-Mask" transform="translate(16.000000, 10.000000)">
                    <mask id="mask-2" fill="white">
                        <use xlink:href="#path-1"></use>
                    </mask>
                    <use id="Mask" fill="#FFF1DA" xlink:href="#path-1"></use>
                    <polygon id="Path-38" fill="#BB8358" mask="url(#mask-2)" points="1.25549458 0.0555434314 0.7364838 1.42283643 1.42878251 2.80597151 0.885399313 3.96207746 1.63229225 5.30243893 0.814841144 6.38628064 1.28425404 7.1675387 1.89734237 7.1675387 1.74391796 -0.101780567"></polygon>
                    <polygon id="Path-38" fill="#BB8358" mask="url(#mask-2)" points="4.25549458 0.0555434314 3.7364838 1.42283643 4.42878251 2.80597151 3.88539931 3.96207746 4.63229225 5.30243893 3.81484114 6.38628064 4.28425404 7.1675387 4.89734237 7.1675387 4.74391796 -0.101780567"></polygon>
                    <polygon id="Path-38" fill="#67BEAB" mask="url(#mask-2)" transform="translate(3.464809, 3.547128) scale(-1, 1) translate(-3.464809, -3.547128) " points="3.76235629 -0.0228820129 2.91767501 1.48751069 3.66456796 2.74810015 2.91767501 4.06385802 3.66456796 5.4042195 2.84711685 6.4880612 3.31652974 7.26931926 3.92961807 7.26931926 4.08250122 -0.175063584"></polygon>
                    <polygon id="Path-38" fill="#67BEAB" mask="url(#mask-2)" transform="translate(0.617692, 3.722191) scale(-1, 1) translate(-0.617692, -3.722191) " points="0.915239444 0.152181571 0.0705581683 1.66257427 0.81745111 2.92316374 0.0705581683 4.23892161 0.81745111 5.57928308 0 6.66312479 0.469412891 7.44438285 1.08250122 7.44438285 1.23538438 0"></polygon>
                    <polygon id="Path-38" fill="#D27474" mask="url(#mask-2)" transform="translate(2.617692, 3.722191) scale(-1, 1) translate(-2.617692, -3.722191) " points="2.91523944 0.152181571 2.07055817 1.66257427 2.81745111 2.92316374 2.07055817 4.23892161 2.81745111 5.57928308 2 6.66312479 2.46941289 7.44438285 3.08250122 7.44438285 3.23538438 0"></polygon>
                </g>
                <g id="Path-38-+-Path-38-+-Path-38-+-Path-38-+-Path-38-Mask" transform="translate(12.000000, 10.000000)">
                    <mask id="mask-4" fill="white">
                        <use xlink:href="#path-3"></use>
                    </mask>
                    <use id="Mask" fill="#FFF1DA" xlink:href="#path-3"></use>
                    <polygon id="Path-38" fill="#BB8358" mask="url(#mask-4)" points="1.25549458 0.0714129832 0.7364838 1.82936113 1.42878251 3.60767766 0.885399313 5.09409959 1.63229225 6.81742148 0.814841144 8.21093225 1.28425404 9.21540689 1.89734237 9.21540689 1.74391796 -0.130860729"></polygon>
                    <polygon id="Path-38" fill="#BB8358" mask="url(#mask-4)" points="4.25549458 0.0714129832 3.7364838 1.82936113 4.42878251 3.60767766 3.88539931 5.09409959 4.63229225 6.81742148 3.81484114 8.21093225 4.28425404 9.21540689 4.89734237 9.21540689 4.74391796 -0.130860729"></polygon>
                    <polygon id="Path-38" fill="#67BEAB" mask="url(#mask-4)" transform="translate(3.464809, 4.560593) scale(-1, 1) translate(-3.464809, -4.560593) " points="3.76235629 -0.0294197309 2.91767501 1.91251374 3.66456796 3.53327163 2.91767501 5.22496032 3.66456796 6.94828221 2.84711685 8.34179298 3.31652974 9.34626762 3.92961807 9.34626762 4.08250122 -0.225081751"></polygon>
                    <polygon id="Path-38" fill="#67BEAB" mask="url(#mask-4)" transform="translate(0.617692, 4.785675) scale(-1, 1) translate(-0.617692, -4.785675) " points="0.915239444 0.19566202 0.0705581683 2.13759549 0.81745111 3.75835338 0.0705581683 5.45004207 0.81745111 7.17336396 -3.33066907e-16 8.56687473 0.469412891 9.57134937 1.08250122 9.57134937 1.23538438 0"></polygon>
                    <polygon id="Path-38" fill="#D27474" mask="url(#mask-4)" transform="translate(2.617692, 4.785675) scale(-1, 1) translate(-2.617692, -4.785675) " points="2.91523944 0.19566202 2.07055817 2.13759549 2.81745111 3.75835338 2.07055817 5.45004207 2.81745111 7.17336396 2 8.56687473 2.46941289 9.57134937 3.08250122 9.57134937 3.23538438 0"></polygon>
                </g>
                <path d="M11.2337407,10.3816877 L12.5147908,10.3447417 C12.8585366,10.2971909 13.0935825,10.3676334 13.2199286,10.5560692 C13.3462747,10.7445051 13.4587375,10.9594531 13.5573171,11.2009132 L13.6641354,16.8811848 C13.6519341,17.1276053 13.5748493,17.3275297 13.432881,17.4809581 C13.2909127,17.6343865 13.1139085,17.7311131 12.9018683,17.7711379 L9.52627252,17.921573 C9.18800025,17.9064069 8.95024611,17.8078843 8.81301008,17.6260052 C8.67577405,17.4441261 8.61382684,17.1393504 8.62716844,16.711678 L10.3572147,11.2638582 C10.4141161,10.9719394 10.4964178,10.7809949 10.6041198,10.6910246 C10.7118219,10.6010544 10.9216955,10.497942 11.2337407,10.3816877 Z" id="Path-15" fill="#000000" opacity="0.186340557"></path>
                <path d="M17.1109886,11.1928126 L17.3070415,16.9029411 L15.5247242,16.9383213 C15.1926271,16.8887957 14.9699298,16.7807398 14.8566324,16.6141536 C14.743335,16.4475675 14.6376647,16.2301789 14.5396215,15.961988 L14.5246025,12.0106908 C14.4699026,11.7765697 14.540831,11.5817264 14.7373879,11.4261609 C14.9339448,11.2705953 15.1190778,11.1833711 15.2927871,11.1644882 L17.1109886,11.1928126 Z" id="Path-16" stroke="#000000" fill="#000000" opacity="0.186340557"></path>
                <polygon id="Path-17" stroke="#000000" fill="#000000" opacity="0.186340557" points="17.5750644 11.0956429 20.0083378 11.0956429 20.1974356 16.9971876 17.6985425 16.9971876"></polygon>
                <path d="M1.51879418,27.3102002 C1.15638648,27.3570914 0.912305797,27.3999529 0.786552124,27.4387847 C0.597921615,27.4970324 0.165709971,27.5111197 0.165709971,28.12287 C0.165709971,28.7346204 0.467638678,29.4841469 0.777160563,29.7293266 C1.08668245,29.9745063 1.32566771,30.0481401 1.55406249,30.0202652 C1.70632568,30.0016819 1.78245727,29.8347319 1.78245727,29.5194152 L5.07589078,29.2148609 L4.70937211,27.7414384 L1.55406249,27.9098153 L1.51879418,27.3102002 Z" id="Path-13" fill="#B4B4B4"></path>
                <path d="M31.2355032,29.1459663 L31.170205,29.6330537 L31.4185101,30.3163222 C31.5061472,30.5046751 31.6365288,30.5960354 31.809655,30.5904029 C31.9827812,30.5847705 32.0439982,30.4539354 31.9933062,30.1978976 L31.7932588,29.6643425 L31.8566239,29.1457515 L31.2355032,29.1459663 Z" id="Path-19" fill="#828282"></path>
                <path d="M5.32074262,27.8508051 L1.62884003,27.7640899 C1.61423425,27.5407415 1.63659416,27.4492234 1.69591977,27.4895354 C1.72446571,27.5089325 1.40379613,27.5089325 0.733911039,27.4895354 L1.4151658,27.8508051 C1.42467271,27.904344 1.49585847,27.9779468 1.62872308,28.0716135 C1.72320422,28.1382206 2.28859471,28.0906071 2.56400107,28.2610783 C2.74760531,28.3747258 2.74760531,28.507936 2.56400107,28.6607088 L1.62884003,28.5915892 L1.62872308,29.1072377 L2.4401472,29.0419776 L2.48961858,29.5087394 L5.5405873,29.3037197 L5.32074262,27.8508051 Z" id="Path" fill="#000000" opacity="0.401494565"></path>
                <polygon id="Path-24" fill="#2C2C2C" points="12.0020353 5.94641135 11.9874223 2.90790486 11.566123 2.55434535 11.5515101 2.03484198 20.384925 1.95286076 20.384925 2.55434535 20.0598484 2.74196099 20.0917988 5.86802145"></polygon>
                <polygon id="Path-25" fill="#2C2C2C" points="27.4411306 1.65626706 27.826269 2.09614214 27.811656 2.46951584 27.524474 2.77477825 27.524474 5.65155139 19.8727281 5.94628751 19.8639355 2.33428397 19.6805304 2.1766373 19.6805304 1.7908499"></polygon>
                <g id="gas-can" transform="translate(18.000000, 0.000000)">
                    <polygon id="Path-28" fill="#8C8C8C" points="2.6013825 2.5832452 1.47254968 1.88825485 1.64824268 1.51659385 2.90115287 2.19009555"></polygon>
                    <path d="M2.83684359,5.73962969 C2.45253007,5.82697367 2.21952215,5.76053107 2.13781985,5.54030188 C2.05611754,5.3200727 2.05618551,4.44676882 2.13802376,2.92039025 C2.44552896,2.22524091 2.73967766,1.84544753 3.02046987,1.7810101 C3.44165818,1.68435396 4.4402344,1.84728277 4.76231958,1.81414643 C4.97704304,1.79205554 5.26507426,2.0909283 5.62641326,2.7107647 C5.82761029,4.39646956 5.87790955,5.28948531 5.77731103,5.38981194 C5.67671252,5.49013857 4.6965567,5.60674448 2.83684359,5.73962969 Z M5.08970658,3.58913248 L5.08970658,4.78030728 C5.39755163,4.69595406 5.53723403,4.43446589 5.50875378,3.99584277 C5.48027352,3.55721964 5.34059112,3.42164955 5.08970658,3.58913248 Z" id="Combined-Shape" fill="#FF5843"></path>
                    <polygon id="Path-29" fill="#FF5843" points="1.55422318 1.93304648 0.65902959 1.35550316 0.846776858 1.06178544 1.84077564 1.63169935"></polygon>
                    <polygon id="Path-30" fill="#343434" points="0.677479414 1.35268927 0.546851178 1.28324135 0.728651568 0.996398797 0.868098588 1.0714745"></polygon>
                </g>
                <g id="rack" transform="translate(9.000000, 3.000000)">
                    <path d="M2.41323197,2.31615963 C2.41323197,2.68493586 2.35167561,2.96165851 2.22856289,3.14632759 L1.50996264,3.21804969 L0.502405095,3.77213354 L0.177050364,1.89149738 L0.841935667,2.05547739 L2.25974975,2.01348625 C2.36207123,1.84649227 2.41323197,1.9473834 2.41323197,2.31615963 Z" id="Path-23" fill="#FFFDF5"></path>
                    <path d="M18.5,1.5 L18.5,2.5" id="Line" stroke="#979797" stroke-linecap="square"></path>
                    <path d="M25,1.5 L25,2.5" id="Line" stroke="#979797" stroke-linecap="square"></path>
                    <path d="M25,2.5 L25,3.5" id="Line" stroke="#979797" stroke-linecap="square"></path>
                    <path d="M31,2.5 L31,3.5" id="Line" stroke="#979797" stroke-linecap="square"></path>
                    <path d="M18.3999023,3.5 L18.3999023,4.5" id="Line" stroke="#979797" stroke-linecap="square"></path>
                    <path d="M12.3999023,3.5 L12.3999023,4.5" id="Line" stroke="#979797" stroke-linecap="square"></path>
                    <path d="M5.39990234,3.5 L5.39990234,4.5" id="Line" stroke="#979797" stroke-linecap="square"></path>
                    <polygon id="Path-20" fill="#D29D59" points="2.41294217 2.84402751 2.41294217 3.29144221 39.0439258 2.41294723 39.0439258 2.02552441"></polygon>
                    <path d="M2.3323472,1.76187269 L2.34487669,3.31403018 L38.6488433,2.42602327 L38.66435,0.881126959 L2.3323472,1.76187269 Z" id="Path-21" stroke="#979797" stroke-width="0.6"></path>
                    <path d="M35,3 L35,4" id="Line" stroke="#979797" stroke-linecap="square"></path>
                    <polygon id="Path-22" fill="#52493D" points="2.16186299 3.60815556 2.89896595 4.27595824 36.6172489 3.3677959 36.6705252 3.81948032 37.8080907 3.68717979 38.9377126 2.70095193"></polygon>
                </g>
                <path d="M7.88403659,17.7749158 C8.84254233,14.8837689 9.64029246,12.4228475 10.277287,10.3921514 C10.1770822,10.3921514 10.1269798,10.3694187 10.1269798,10.3239534 C10.1269798,10.2784881 10.1437381,9.81731094 10.1772547,8.94042183 L11.242201,7.78472913 L12.3227987,7.58323444 L14.1784388,7.52376823 L46.8991341,6.62536599 L47.9082749,6.82542559 L48.4670788,7.19552772 L48.9265831,7.58323444 L49.1008442,8.18990339 L49.3285682,8.32562914 L49.6357156,17.3889127 L49.9559246,17.3889127 L49.9367785,17.7749158 C49.8869092,19.0951069 49.7865549,19.774402 49.6357156,19.8128011 C49.4456619,19.861183 21.3022339,23.9567175 12.6852517,21.9430116 C4.06826942,19.9293056 7.65906278,18.4535057 7.88403659,17.7749158 Z M11.2337407,10.3816877 C10.9216955,10.497942 10.7118219,10.6010544 10.6041198,10.6910246 C10.4964178,10.7809949 10.4141161,10.9719394 10.3572147,11.2638582 L8.62716844,16.711678 C8.61382684,17.1393504 8.67577405,17.4441261 8.81301008,17.6260052 C8.95024611,17.8078843 9.18800025,17.9064069 9.52627252,17.921573 L12.9018683,17.7711379 C13.1139085,17.7311131 13.2909127,17.6343865 13.432881,17.4809581 C13.5748493,17.3275297 13.6519341,17.1276053 13.6641354,16.8811848 L13.5573171,11.2009132 C13.4587375,10.9594531 13.3462747,10.7445051 13.2199286,10.5560692 C13.0935825,10.3676334 12.8585366,10.2971909 12.5147908,10.3447417 L11.2337407,10.3816877 Z M17.1109886,11.1928126 L15.2927871,11.1644882 C15.1190778,11.1833711 14.9339448,11.2705953 14.7373879,11.4261609 C14.540831,11.5817264 14.4699026,11.7765697 14.5246025,12.0106908 L14.5396215,15.961988 C14.6376647,16.2301789 14.743335,16.4475675 14.8566324,16.6141536 C14.9699298,16.7807398 15.1926271,16.8887957 15.5247242,16.9383213 L17.3070415,16.9029411 L17.1109886,11.1928126 Z M17.5750644,11.0956429 L17.6985425,16.9971876 L20.1974356,16.9971876 L20.0083378,11.0956429 L17.5750644,11.0956429 Z" id="Combined-Shape" fill="#FFFDF6"></path>
                <path d="M11.253216,10.4811676 C10.9596582,10.5913397 10.7632436,10.6883994 10.6682301,10.7677701 C10.5825155,10.8393729 10.5082557,11.0116596 10.4525242,11.2941253 L8.72711982,16.7147961 C8.71442281,17.1218056 8.77215261,17.405832 8.89283558,17.5657733 C9.00975562,17.7207275 9.21970429,17.8077278 9.52182039,17.8216721 L12.8833198,17.6728732 C13.0744742,17.6367908 13.232199,17.5505997 13.3594823,17.4130418 C13.4847284,17.2776855 13.5531696,17.1001786 13.5641531,16.8830649 L13.4647356,11.2387109 C13.3686333,11.0033187 13.2593036,10.794359 13.1368708,10.6117594 C13.0351567,10.4600604 12.8380246,10.4009806 12.5176737,10.4447002 L11.253216,10.4811676 Z" id="Path-15" stroke="#3F3F3F" stroke-width="0.2" opacity="0.339900362"></path>
                <text id="Ramblin" transform="translate(34.700195, 13.699951) rotate(-1.000000) translate(-34.700195, -13.699951) " font-family="Phosphate-Inline, Phosphate" font-size="4" font-weight="normal" fill="#FF5A5A">
                    <tspan x="26.7001953" y="15.1999512">Ramblin</tspan>
                </text>
                <text id="The" transform="translate(27.799805, 11.199951) rotate(-1.000000) translate(-27.799805, -11.199951) " font-family="Milkshake" font-size="1.5" font-weight="normal" fill="#FF5A5A">
                    <tspan x="26.7998047" y="11.6999512">The</tspan>
                </text>
                <path d="M1.54847532,27.9672881 L1.47201642,26.7551022 L1.19293555,26.3209764 L1.19293555,22.1486629 C1.28336121,22.1135814 1.33531012,22.0701561 1.34878226,22.0183869 C1.36899048,21.9407332 1.42255969,21.33418 1.47201642,21.3017031 C1.9716641,20.9735977 7.53313398,17.9187417 7.63071379,17.8785441 C7.72829359,17.8383466 7.74093638,17.8232489 7.97031812,17.8292263 C8.19969986,17.8352037 7.83712314,19.3559723 8.78485605,20.0660611 C9.41667799,20.5394537 10.3080908,20.7410325 11.4590945,20.6707975 L49.7725772,19.7445647 L49.7783372,20.8608309 L49.9100877,20.9735977 L49.9100877,21.4263684 L49.7725772,21.4851045 L49.917957,28.6333813 L48.0650937,28.8844699 L42.9776091,29.0585688 C42.7757008,28.9425028 42.6747467,28.8007737 42.6747467,28.6333813 C42.6747467,28.3822927 41.8592951,23.8069065 37.9148915,23.8963371 C33.7979693,23.9896791 33.6632746,28.8234622 33.4952408,29.0585688 C33.3272071,29.2936753 16.5368363,29.8053443 15.8576089,29.8053443 C15.1783814,29.8053443 14.3445874,24.3374096 10.1324077,24.2398683 C5.92022794,24.1423269 5.30786873,27.9672881 5.14748543,27.9672881 C5.04056323,27.9672881 3.8408932,27.9672881 1.54847532,27.9672881 Z" id="green" fill="#58C39A"></path>
                <text id="@ramblinstories" transform="translate(18.799805, 19.699951) rotate(-1.000000) translate(-18.799805, -19.699951) " font-family="OpenSans, Open Sans" font-size="1" font-weight="normal" fill="#FF5A5A">
                    <tspan x="14.7998047" y="20.1999512">@ramblinstories</tspan>
                </text>
                <text id="Story-Wagon" transform="translate(35.000000, 17.399902) rotate(-1.000000) translate(-35.000000, -17.399902) " font-family="Milkshake" font-size="2.04999995" font-weight="normal" fill="#FF5A5A">
                    <tspan x="29.5" y="17.8999023">Story Wagon</tspan>
                </text>
                <polygon id="Path-14" fill="#949494" points="7.64057425 19.0662138 7.74063625 19.330138 8.6044193 18.0980926 8.83960776 18.1037371 10.1482818 19.5398406 10.4087851 19.3333879 8.92410455 17.780973 8.86996845 17.2557758 9.15954958 17.5108056 9.69663449 17.6490109 9.86862139 16.711678 9.39157368 15.3489534 9.09001932 15.0154134 8.84131822 15.0911013 8.8709092 16.628122 8.65043072 16.8794743 8.65043072 17.7135808"></polygon>
                <path d="M15.483192,10.8627953 C15.0463157,11.0975146 14.7687099,11.2609299 14.6557293,11.3490303 C14.5593121,11.4242148 14.4647305,11.6496525 14.3888328,11.9937734 L14.5501555,15.9285046 C14.6128996,16.2207533 14.7151204,16.4620574 14.8561251,16.6532391 C14.9870201,16.8307134 15.2892231,16.9640802 15.7459146,17.0415761 L21.0891201,16.9492548 C21.3362948,16.9082862 21.533907,16.8031565 21.6857567,16.6329296 C21.8473259,16.4518069 21.978646,16.2596414 22.0694628,16.103194 L21.9746608,11.7861687 C22.0050722,11.6688307 21.909052,11.4671536 21.6711425,11.1944516 C21.4319452,10.9202735 21.1490432,10.7867804 20.8165948,10.7892581 L15.483192,10.8627953 Z" id="Path-18" stroke="#B5B5B5" stroke-width="0.2" opacity="0.563066123"></path>
                <g id="Rectangle-14" opacity="0.374094203">
                    <use fill="#D8D8D8" fill-rule="evenodd" xlink:href="#path-5"></use>
                    <rect stroke="#979797" stroke-width="1" x="47.5" y="10.5" width="1" height="1"></rect>
                </g>
                <g id="Rectangle-15" opacity="0.374094203">
                    <use fill="#D8D8D8" fill-rule="evenodd" xlink:href="#path-6"></use>
                    <rect stroke="#979797" stroke-width="1" x="47.5" y="12.6000977" width="1" height="1"></rect>
                </g>
                <g id="Rectangle-16" opacity="0.374094203">
                    <use fill="#D8D8D8" fill-rule="evenodd" xlink:href="#path-7"></use>
                    <rect stroke="#979797" stroke-width="1" x="47.5" y="14.6999512" width="1" height="1"></rect>
                </g>
                <polygon id="Path-31" fill="#FFAE5A" points="13.2703357 1.93932038 13.3683869 1.90039928 13.7390799 1.90039928 13.7765872 5.03734592 13.6469888 5.05453331 13.3452948 5.04471987"></polygon>
                <polygon id="Path-32" fill="#FFAE5A" points="17.3919844 1.90287491 17.517302 1.85227457 17.8124474 1.86918775 17.85654 1.93496122 17.966058 4.88958221 17.9149009 4.92685384 17.6430372 4.93590205 17.5622646 4.90392013"></polygon>
                <path d="M25.5747612,1.67179773 L25.7110759,1.60978274 L26.2206985,1.62199781 L26.2395605,1.69455744 L26.1318173,4.70458127 L26.0419269,4.72142484 L25.6419616,4.72549653 C25.7101873,4.52434178 25.6844,4.79359541 25.5645994,5.53325743 C25.3848986,6.64275045 25.2328436,6.75452118 25.1706546,7.63539852 C25.1291953,8.22265007 25.1137437,8.59622484 25.1243,8.75612282 L24.803054,8.77797771 C24.7887856,8.40468135 24.8052232,8.01903071 24.8523667,7.6210258 C24.9230819,7.02401842 25.2436666,5.62725433 25.2843835,5.44107016 C25.3115282,5.31694738 25.3386264,5.07784283 25.3656782,4.72375649 L25.6111242,4.71768469 L25.6400456,4.11979328 L25.4861073,4.11988754 L25.6725959,2.96149354 L25.5747612,1.67179773 Z" id="Path-33" fill="#FFAE5A"></path>
                <polygon id="Path-34" fill="#FFAE5A" points="21.5835335 1.74147123 21.5835335 1.5107504 21.7779819 1.3993839 22.3157915 1.4579077 22.3585362 1.64557492 22.2000627 3.14341128 22.2262096 4.8015401 22.0569135 4.83400785 21.8875719 4.83400785 21.7779819 4.8015401 21.7264155 3.06697111 21.7946705 1.75457379"></polygon>
                <circle id="Oval-5" fill="#545454" cx="31.7793522" cy="30.3581732" r="1"></circle>
                <polygon id="Path-39" fill="#FFB53B" points="3.52736444 25.683858 5.09521881 25.6816516 5.0751921 26.4202641 3.52736444 26.4202641"></polygon>
                <polygon id="Path-40" fill="#B93838" points="46.5152228 25.059808 48.0525279 25.0163573 48.0525279 25.6665467 46.5152228 25.7230061"></polygon>
                <path d="M43.840756,24.058475 C43.840756,23.6442615 43.5049696,23.308475 43.090756,23.308475 C42.6765425,23.308475 42.340756,23.6442615 42.340756,24.058475 C42.340756,24.0833484 43.840756,24.0699335 43.840756,24.058475 Z" id="Oval-2" fill="#575757" opacity="0.26841713"></path>
                <circle id="Oval-2" fill="#D8D8D8" cx="43.072831" cy="24.0802333" r="1"></circle>
                <polygon id="Path-37" fill="#FF5A5A" points="22.7060014 22.9317118 48.605469 22.2945906 48.5946071 23.0832699 22.7614992 23.7422847"></polygon>
            </g>
        </g>
    </g>
</svg>