<?xml version="1.0" encoding="UTF-8"?>
<svg width="35px" height="35px" viewBox="0 0 35 35" version="1.1" xmlns="http://www.w3.org/2000/svg" xmlns:xlink="http://www.w3.org/1999/xlink">
    <!-- Generator: Sketch 42 (36781) - http://www.bohemiancoding.com/sketch -->
    <title>Email</title>
    <desc>Created with Sketch.</desc>
    <defs></defs>
    <g id="Home" stroke="none" stroke-width="1" fill="none" fill-rule="evenodd">
        <g transform="translate(-245.000000, -5022.000000)" id="Footer" fill="#FFFFFF">
            <g transform="translate(0.000000, 4876.000000)">
                <g id="Share" transform="translate(110.000000, 146.000000)">
                    <g id="Email" transform="translate(135.000000, 0.000000)">
                        <path d="M17.5,35 C7.835625,35 0,27.1654687 0,17.5 C0,7.83453125 7.835625,0 17.5,0 C27.164375,0 35,7.83453125 35,17.5 C35,27.1654687 27.164375,35 17.5,35 Z M8.75,24.0625 L26.25,24.0625 L26.25,10.9375 L8.75,10.9375 L8.75,24.0625 Z M18.095,19.4785937 C17.9221875,19.6185937 17.71,19.6885937 17.5,19.6885937 C17.29,19.6885937 17.0778125,19.6185937 16.905,19.4785937 L10.0307813,13.8490625 C10.0242188,13.8271875 10.014375,13.8053125 9.99796875,13.79 L9.99796875,12.4982812 L11.3421875,12.4982812 L17.5,17.5404687 L23.6578125,12.499375 L25.0020313,12.499375 L25.0020313,13.7910937 C24.9845313,13.8053125 24.9779688,13.8260937 24.9615625,13.8392187 L18.095,19.4785937 Z" id="Combined-Shape"></path>
                    </g>
                </g>
            </g>
        </g>
    </g>
</svg>