<?xml version="1.0" encoding="UTF-8"?>
<svg width="35px" height="35px" viewBox="0 0 35 35" version="1.1" xmlns="http://www.w3.org/2000/svg" xmlns:xlink="http://www.w3.org/1999/xlink">
    <!-- Generator: Sketch 42 (36781) - http://www.bohemiancoding.com/sketch -->
    <title>facebook</title>
    <desc>Created with Sketch.</desc>
    <defs></defs>
    <g id="Home" stroke="none" stroke-width="1" fill="none" fill-rule="evenodd">
        <g transform="translate(-110.000000, -5022.000000)" id="Footer" fill="#FFFFFF">
            <g transform="translate(0.000000, 4876.000000)">
                <g id="Share" transform="translate(110.000000, 146.000000)">
                    <g id="facebook">
                        <g id="Facebook">
                            <path d="M0.0647945633,17.5 C0.0647945633,7.8350164 7.69907003,0 17.1164271,0 C26.5337842,0 34.1680596,7.8350164 34.1680596,17.5 C34.1680596,27.1649836 26.5337842,35 17.1164271,35 C7.69907003,35 0.0647945633,27.1649836 0.0647945633,17.5 Z M18.5422706,27.0198092 L18.5422706,17.4988852 L21.0994298,17.4988852 L21.4383086,14.2179221 L18.5422706,14.2179221 L18.5466152,12.5757685 C18.5466152,11.7200428 18.625723,11.2615255 19.8215743,11.2615255 L21.4202061,11.2615255 L21.4202061,7.98019078 L18.8626849,7.98019078 C15.7906905,7.98019078 14.7094281,9.57181088 14.7094281,12.2484154 L14.7094281,14.2182938 L12.7945456,14.2182938 L12.7945456,17.4992569 L14.7094281,17.4992569 L14.7094281,27.0198092 L18.5422706,27.0198092 Z" id="Combined-Shape"></path>
                        </g>
                    </g>
                </g>
            </g>
        </g>
    </g>
</svg>