<?xml version="1.0" encoding="UTF-8"?>
<svg width="35px" height="35px" viewBox="0 0 35 35" version="1.1" xmlns="http://www.w3.org/2000/svg" xmlns:xlink="http://www.w3.org/1999/xlink">
    <!-- Generator: Sketch 42 (36781) - http://www.bohemiancoding.com/sketch -->
    <title>medium</title>
    <desc>Created with Sketch.</desc>
    <defs></defs>
    <g id="Home" stroke="none" stroke-width="1" fill="none" fill-rule="evenodd">
        <g transform="translate(-335.000000, -5022.000000)" id="Footer" fill-rule="nonzero" fill="#FFFFFF">
            <g transform="translate(0.000000, 4876.000000)">
                <g id="Share" transform="translate(110.000000, 146.000000)">
                    <path d="M242.5,0 C232.827273,0 225,7.82727273 225,17.5 C225,27.1727273 232.827273,35 242.5,35 C252.172727,35 260,27.1727273 260,17.5 C260,7.82727273 252.172727,0 242.5,0 Z M238.554545,25.8363636 L238.554545,25.8363636 L238.554545,25.8363636 L232.445455,22.8454545 C232.381818,22.7818182 232.254545,22.6545455 232.254545,22.5272727 L232.254545,8.65454545 L238.490909,11.7727273 L238.490909,25.8363636 L238.554545,25.8363636 Z M239.318182,19.2181818 L239.318182,12.9181818 L244.918182,22.0181818 L239.318182,19.2181818 Z M241.8,15.5272727 L246.127273,8.59090909 L252.427273,11.7727273 L245.936364,22.2727273 L241.8,15.5272727 Z M252.618182,25.8363636 L252.618182,25.8363636 L252.618182,25.8363636 L246.509091,22.8454545 L252.618182,12.9181818 L252.618182,25.8363636 Z" id="medium"></path>
                </g>
            </g>
        </g>
    </g>
</svg>