<?xml version="1.0" encoding="UTF-8"?>
<svg width="25px" height="25px" viewBox="0 0 25 25" version="1.1" xmlns="http://www.w3.org/2000/svg" xmlns:xlink="http://www.w3.org/1999/xlink">
    <!-- Generator: Sketch 42 (36781) - http://www.bohemiancoding.com/sketch -->
    <title>Pinterest-Color</title>
    <desc>Created with Sketch.</desc>
    <defs></defs>
    <g id="Home" stroke="none" stroke-width="1" fill="none" fill-rule="evenodd">
        <g transform="translate(-554.000000, -1031.000000)" id="Top-Stories">
            <g transform="translate(152.000000, 550.000000)">
                <g id="Featured-Story" transform="translate(0.000000, 70.000000)">
                    <g id="Share" transform="translate(292.000000, 411.000000)">
                        <g id="Pinterest-Color" transform="translate(110.156250, 0.000000)">
                            <path d="M0.370254648,12.5 C0.370254648,5.59644029 5.82330855,0 12.5499922,0 C19.2766759,0 24.7297298,5.59644029 24.7297298,12.5 C24.7297298,19.4035597 19.2766759,25 12.5499922,25 C5.82330855,25 0.370254648,19.4035597 0.370254648,12.5 Z" id="Shape" fill="#CB2027"></path>
                            <path d="M7.36749205,10.6902039 C7.36749205,12.0662758 7.87512484,13.2904874 8.96389891,13.7466899 C9.14243187,13.8215982 9.30234961,13.7492669 9.35412586,13.5464016 C9.39014422,13.4060042 9.47534133,13.0518119 9.51335102,12.9043058 C9.56556016,12.703662 9.54529992,12.6332856 9.40122672,12.4584109 C9.08727883,12.0783605 8.88666734,11.5863478 8.88666734,10.889426 C8.88666734,8.86752633 10.3606466,7.05746669 12.7248665,7.05746669 C14.818343,7.05746669 15.968504,8.37027086 15.968504,10.1235495 C15.968504,12.4304203 14.9737584,14.3774118 13.4970086,14.3774118 C12.6814887,14.3774118 12.0709959,13.6851995 12.2666723,12.8362398 C12.5009643,11.822713 12.9548294,10.7288577 12.9548294,9.99728078 C12.9548294,9.3423893 12.6123093,8.79617242 11.9034589,8.79617242 C11.0697567,8.79617242 10.4000416,9.68129781 10.4000416,10.8670335 C10.4000416,11.6222469 10.6487064,12.1330089 10.6487064,12.1330089 C10.6487064,12.1330089 9.79552312,15.8429647 9.64599523,16.4927023 C9.34815172,17.7866684 9.60123211,19.372892 9.62261797,19.5331049 C9.63517242,19.6280064 9.75405016,19.6505766 9.80790437,19.5788673 C9.88478961,19.4758797 10.8777169,18.2178127 11.2153018,16.9607232 C11.3108022,16.6047537 11.7636283,14.7615496 11.7636283,14.7615496 C12.0344581,15.2917718 12.8260813,15.7588152 13.6679223,15.7588152 C16.1739641,15.7588152 17.8741833,13.4140904 17.8741833,10.2755874 C17.8741833,7.90242773 15.9156021,5.69223566 12.9388116,5.69223566 C9.23498844,5.69223566 7.36749205,8.41754391 7.36749205,10.6902039 Z" id="Shape" fill="#FFFFFF"></path>
                        </g>
                    </g>
                </g>
            </g>
        </g>
    </g>
</svg>