<?xml version="1.0" encoding="UTF-8"?>
<svg width="35px" height="35px" viewBox="0 0 35 35" version="1.1" xmlns="http://www.w3.org/2000/svg" xmlns:xlink="http://www.w3.org/1999/xlink">
    <!-- Generator: Sketch 42 (36781) - http://www.bohemiancoding.com/sketch -->
    <title>Pinterest</title>
    <desc>Created with Sketch.</desc>
    <defs></defs>
    <g id="Home" stroke="none" stroke-width="1" fill="none" fill-rule="evenodd">
        <g transform="translate(-290.000000, -5022.000000)" id="Footer" fill="#FFFFFF">
            <g transform="translate(0.000000, 4876.000000)">
                <g id="Share" transform="translate(110.000000, 146.000000)">
                    <g id="Pinterest" transform="translate(180.000000, 0.000000)">
                        <path d="M0.518356507,17.5 C0.518356507,7.8350164 8.15263198,0 17.5699891,0 C26.9873462,0 34.6216217,7.8350164 34.6216217,17.5 C34.6216217,27.1649836 26.9873462,35 17.5699891,35 C8.15263198,35 0.518356507,27.1649836 0.518356507,17.5 Z M10.3144889,14.9662855 C10.3144889,16.8927861 11.0251748,18.6066824 12.5494585,19.2453659 C12.7994046,19.3502375 13.0232895,19.2489736 13.0957762,18.9649622 C13.1462019,18.7684059 13.2654779,18.2725366 13.3186914,18.0660281 C13.3917842,17.7851267 13.3634199,17.6865999 13.1617174,17.4417753 C12.7221904,16.9097048 12.4413343,16.2208869 12.4413343,15.2451964 C12.4413343,12.4145369 14.5049053,9.88045336 17.8148131,9.88045336 C20.7456803,9.88045336 22.3559056,11.7183792 22.3559056,14.1729693 C22.3559056,17.4025884 20.9632618,20.1283765 18.895812,20.1283765 C17.7540841,20.1283765 16.8993943,19.1592792 17.1733412,17.9707357 C17.50135,16.5517982 18.1367611,15.0204007 18.1367611,13.9961931 C18.1367611,13.079345 17.657233,12.3146414 16.6648425,12.3146414 C15.4976594,12.3146414 14.5600583,13.5538169 14.5600583,15.2138469 C14.5600583,16.2711456 14.908189,16.9862125 14.908189,16.9862125 C14.908189,16.9862125 13.7137324,22.1801506 13.5043933,23.0897833 C13.0874124,24.9013357 13.441725,27.1220487 13.4716652,27.3463469 C13.4892414,27.479209 13.6556702,27.5108073 13.7310661,27.4104143 C13.8387055,27.2662316 15.2288036,25.5049377 15.7014225,23.7450125 C15.8351231,23.2466551 16.4690796,20.6661695 16.4690796,20.6661695 C16.8482414,21.4084805 17.9565139,22.0623412 19.1350912,22.0623412 C22.6435498,22.0623412 25.0238566,18.7797265 25.0238566,14.3858224 C25.0238566,11.0633988 22.281843,7.96912992 18.1143363,7.96912992 C12.9289838,7.96912992 10.3144889,11.7845615 10.3144889,14.9662855 Z" id="Combined-Shape"></path>
                    </g>
                </g>
            </g>
        </g>
    </g>
</svg>