<?xml version="1.0" encoding="UTF-8"?>
<svg width="35px" height="35px" viewBox="0 0 35 35" version="1.1" xmlns="http://www.w3.org/2000/svg" xmlns:xlink="http://www.w3.org/1999/xlink">
    <!-- Generator: Sketch 42 (36781) - http://www.bohemiancoding.com/sketch -->
    <title>Snapchat</title>
    <desc>Created with Sketch.</desc>
    <defs></defs>
    <g id="Home" stroke="none" stroke-width="1" fill="none" fill-rule="evenodd">
        <g transform="translate(-335.000000, -5022.000000)" id="Footer" fill="#FFFFFF">
            <g transform="translate(0.000000, 4876.000000)">
                <g id="Share" transform="translate(110.000000, 146.000000)">
                    <g id="Snapchat" transform="translate(225.000000, 0.000000)">
                        <path d="M17.5,35 C7.835625,35 0,27.1654687 0,17.5 C0,7.83453125 7.835625,0 17.5,0 C27.164375,0 35,7.83453125 35,17.5 C35,27.1654687 27.164375,35 17.5,35 Z M17.4074934,26.8105092 L17.3094934,26.8105092 C18.3404897,26.778632 19.3291392,26.3930587 20.1094934,25.7185092 C20.6126181,25.3233604 21.2031033,25.0545217 21.8314934,24.9345092 C22.1091036,24.8882088 22.3900488,24.8647967 22.6714934,24.8645092 C23.0620994,24.8669588 23.4514409,24.9091765 23.8334934,24.9905092 L24.2674934,24.9905092 C24.4021437,25.0073119 24.5259219,24.9144783 24.5474934,24.7805092 C24.6594934,24.6125092 24.6594934,24.4585092 24.6594934,24.3045092 C24.6375593,24.0459597 24.7548991,23.7952794 24.9674934,23.6465092 C26.8994934,23.3385092 27.4454934,22.9325092 27.5714934,22.6525092 C27.5788179,22.6108285 27.5788179,22.5681898 27.5714934,22.5265092 C27.5734237,22.4175005 27.4965888,22.3229344 27.3894934,22.3025092 C25.4542681,21.8325192 23.8492264,20.4863553 23.0494934,18.6625092 C22.8732821,18.3773292 22.8322784,18.0287981 22.9374934,17.7105092 C23.2438056,17.2723857 23.7126188,16.9749666 24.2394934,16.8845092 L24.5334934,16.7865092 C24.9808491,16.7353768 25.3493009,16.4115859 25.4574934,15.9745092 C25.4150064,15.7152594 25.2223828,15.5061252 24.9674934,15.4425092 C24.85186,15.4205502 24.7331268,15.4205502 24.6174934,15.4425092 C24.5159144,15.421374 24.4110723,15.421374 24.3094934,15.4425092 C23.9954767,15.6019976 23.6527796,15.6971912 23.3014934,15.7225092 C23.0924268,15.7309452 22.887738,15.6610515 22.7274934,15.5265092 L22.7274934,14.9665092 C22.9312663,13.5639933 22.8455026,12.1345981 22.4754934,10.7665092 C21.6092736,8.79346842 19.6461011,7.53064118 17.4914934,7.56050917 L17.0714934,7.56050917 C14.9583743,7.52780582 13.0231471,8.73937864 12.1294934,10.6545092 C11.7594842,12.0225981 11.6737205,13.4519933 11.8774934,14.8545092 L11.8774934,15.4845092 C11.7014781,15.6302196 11.4751058,15.7006466 11.2474934,15.6805092 C10.881431,15.6637655 10.523287,15.5682604 10.1974934,15.4005092 C10.1190765,15.3834561 10.0379103,15.3834561 9.95949338,15.4005092 C9.6107778,15.3872716 9.2913654,15.5946094 9.16149338,15.9185092 C9.11949338,16.1005092 9.18949338,16.4645092 10.0714934,16.8145092 L10.3094934,16.9125092 C10.8719694,16.9774766 11.3806308,17.2775868 11.7094934,17.7385092 C11.7814037,18.0539168 11.7151828,18.3850215 11.5274934,18.6485092 C10.7277603,20.4723553 9.12271868,21.8185192 7.18749338,22.2885092 C7.07699931,22.3030531 6.9971105,22.4013778 7.00549338,22.5125092 C6.99816887,22.5541898 6.99816887,22.5968285 7.00549338,22.6385092 C7.13149338,22.9325092 7.67749338,23.3385092 9.60949338,23.6325092 C9.81772842,23.7849045 9.93385129,24.0329852 9.91749338,24.2905092 C9.94549338,24.4445092 10.0294934,24.5985092 10.0294934,24.7665092 C10.0576298,24.9025355 10.1856945,24.9940103 10.3234934,24.9765092 C10.4678938,24.9889205 10.6130929,24.9889205 10.7574934,24.9765092 C11.1394993,24.8948866 11.5288706,24.8526656 11.9194934,24.8505092 C12.200938,24.8507967 12.4818832,24.8742088 12.7594934,24.9205092 C13.3459719,25.0672178 13.8916159,25.3448261 14.3554934,25.7325092 C15.1377738,26.4019945 16.126226,26.7825486 17.1554934,26.8105092 L17.4074934,26.8105092 Z" id="Combined-Shape"></path>
                    </g>
                </g>
            </g>
        </g>
    </g>
</svg>