<?xml version="1.0" encoding="UTF-8"?>
<svg width="35px" height="35px" viewBox="0 0 35 35" version="1.1" xmlns="http://www.w3.org/2000/svg" xmlns:xlink="http://www.w3.org/1999/xlink">
    <!-- Generator: Sketch 42 (36781) - http://www.bohemiancoding.com/sketch -->
    <title>Twitter</title>
    <desc>Created with Sketch.</desc>
    <defs></defs>
    <g id="Home" stroke="none" stroke-width="1" fill="none" fill-rule="evenodd">
        <g transform="translate(-155.000000, -5022.000000)" id="Footer" fill="#FFFFFF">
            <g transform="translate(0.000000, 4876.000000)">
                <g id="Share" transform="translate(110.000000, 146.000000)">
                    <g id="Twitter" transform="translate(45.000000, 0.000000)">
                        <path d="M35,17.5 C35,27.1654687 27.164375,35 17.5,35 C7.835625,35 0,27.1654687 0,17.5 C0,7.83453125 7.835625,0 17.5,0 C27.164375,0 35,7.83453125 35,17.5 Z M27.34375,12.1789063 C26.6590625,12.481875 25.9251563,12.6864063 25.1529688,12.779375 C25.939375,12.3079688 26.5453125,11.55875 26.8307813,10.6695313 C26.0914063,11.1070313 25.2754688,11.4242188 24.4092188,11.5948438 C23.7125,10.854375 22.7204688,10.390625 21.6223438,10.390625 C19.5179688,10.390625 17.8084375,12.0990625 17.8084375,14.2045313 C17.8084375,14.5042188 17.8423438,14.7951563 17.906875,15.0740625 C14.7371875,14.914375 11.9240625,13.3973438 10.0428125,11.0895313 C9.7146875,11.6517188 9.5265625,12.3079688 9.5265625,13.006875 C9.5265625,14.3303125 10.2003125,15.49625 11.2240625,16.1820313 C10.5984375,16.1623438 10.01,15.990625 9.4959375,15.7040625 L9.4959375,15.7532813 C9.4959375,17.600625 10.8095313,19.1428125 12.5540625,19.4928125 C12.2346875,19.5803125 11.8978125,19.62625 11.55,19.62625 C11.305,19.62625 11.0654688,19.6032813 10.8325,19.5584375 C11.3170313,21.0721875 12.7257813,22.176875 14.3948438,22.2064063 C13.09,23.2290625 11.4439063,23.839375 9.6578125,23.839375 C9.349375,23.839375 9.04640625,23.821875 8.7478125,23.7857813 C10.4365625,24.8685938 12.4414063,25.4996875 14.595,25.4996875 C21.6114063,25.4996875 25.449375,19.6875 25.449375,14.6464063 C25.449375,14.4790625 25.445,14.3160938 25.43625,14.1520313 C26.1854688,13.615 26.8340625,12.9434375 27.34375,12.1789063 Z" id="Combined-Shape"></path>
                    </g>
                </g>
            </g>
        </g>
    </g>
</svg>