<?xml version="1.0" standalone="no"?>
<!DOCTYPE svg PUBLIC "-//W3C//DTD SVG 20010904//EN"
 "http://www.w3.org/TR/2001/REC-SVG-20010904/DTD/svg10.dtd">
<svg version="1.0" xmlns="http://www.w3.org/2000/svg"
 width="16.000000pt" height="16.000000pt" viewBox="0 0 16.000000 16.000000"
 preserveAspectRatio="xMidYMid meet">
<metadata>
Created by potrace 1.11, written by Peter Selinger 2001-2013
</metadata>
<g transform="translate(0.000000,16.000000) scale(0.003810,-0.003810)"
fill="#000000" stroke="none">
<path d="M0 2100 l0 -2100 2100 0 2100 0 0 2100 0 2100 -2100 0 -2100 0 0
-2100z m2075 1260 c537 -40 795 -190 861 -500 18 -86 20 -252 3 -344 -42 -234
-212 -392 -490 -456 -52 -12 -105 -24 -119 -27 -19 -5 -11 -8 33 -14 131 -19
280 -130 378 -282 70 -109 137 -259 194 -440 53 -166 98 -245 172 -302 59 -45
142 -85 206 -100 54 -12 74 -31 63 -60 -6 -16 -28 -17 -339 -12 -344 6 -399
12 -475 49 -93 47 -133 123 -232 445 -121 391 -140 433 -231 523 -103 102
-205 140 -377 140 l-103 0 3 -433 3 -433 37 -76 c43 -87 78 -117 161 -144 52
-16 57 -20 57 -46 l0 -28 -525 0 -525 0 0 30 c0 26 4 30 38 36 88 15 156 79
195 182 22 57 22 58 22 1047 0 911 -1 993 -17 1033 -37 92 -99 142 -195 157
-39 6 -43 9 -43 36 l0 29 553 0 c303 0 615 -5 692 -10z"/>
<path d="M1620 2680 l0 -630 168 0 c244 0 354 31 439 123 52 56 76 104 105
204 21 71 23 99 23 303 0 247 -8 294 -66 416 -73 154 -223 213 -541 214 l-128
0 0 -630z"/>
</g>
</svg>
