<?xml version="1.0" encoding="UTF-8"?>
<svg width="275px" height="74px" viewBox="0 0 275 74" version="1.1" xmlns="http://www.w3.org/2000/svg" xmlns:xlink="http://www.w3.org/1999/xlink">
    <!-- Generator: Sketch 40.3 (33839) - http://www.bohemiancoding.com/sketch -->
    <title>Group</title>
    <desc>Created with Sketch.</desc>
    <defs></defs>
    <g id="Page-1" stroke="none" stroke-width="1" fill="none" fill-rule="evenodd">
        <g id="Group" transform="translate(0.000000, -9.000000)">
            <path d="M0.872096663,22.5995414 C0.872096663,22.5995414 0.872096663,37.8153332 47.4175785,37.8153332 C93.9630604,37.8153332 186.285967,9 230.198329,9 C274.110691,9 273.702183,25.9395186 273.702183,25.9395186 L274.110691,72.1943016 C274.110691,72.1943016 273.702183,54.8854778 230.198329,54.8854778 C186.694476,54.8854778 90.8391499,82.2188232 46.0742437,82.2188232 C1.30933752,82.2188232 -5.68434189e-14,65.561777 -5.68434189e-14,65.561777 L0.872096663,22.5995414 Z" id="Path-2" fill-opacity="0.699999988" fill="#FF7E7E" opacity="0.9"></path>
            <path d="M0.872096663,56.5995414 C0.872096663,56.5995414 0.872096663,71.8153332 47.4175785,71.8153332 C93.9630604,71.8153332 186.285967,43 230.198329,43 C274.110691,43 273.702183,59.9395186 273.702183,59.9395186 L273.702183,66.2447101 C273.702183,66.2447101 273.702183,47.9174624 230.198329,47.9174624 C186.694476,47.9174624 92.1824847,77.1206219 47.4175785,77.1206219 C2.65267238,77.1206219 0.872096663,63.3582555 0.872096663,63.3582555 L0.872096663,56.5995414 Z" id="Path-2" opacity="0.9"></path>
            <text id="Featured-Story" transform="translate(117.026012, 42.622523) rotate(-10.000000) translate(-117.026012, -42.622523) " font-family="Milkshake" font-size="35" font-weight="normal" letter-spacing="-0.807692289" fill="#FFFFFF">
                <tspan x="19.0260124" y="53.622523">Featured Story</tspan>
            </text>
        </g>
    </g>
</svg>