<?xml version="1.0" encoding="UTF-8"?>
<svg width="391px" height="101px" viewBox="0 0 391 101" version="1.1" xmlns="http://www.w3.org/2000/svg" xmlns:xlink="http://www.w3.org/1999/xlink">
    <!-- Generator: Sketch 40.3 (33839) - http://www.bohemiancoding.com/sketch -->
    <title>brand</title>
    <desc>Created with Sketch.</desc>
    <defs></defs>
    <g id="Page-1" stroke="none" stroke-width="1" fill="none" fill-rule="evenodd">
        <g id="brand" fill="#FE6572">
            <path d="M173.380267,65.2849225 L175.142332,65.2849225 C174.85659,70.7140143 172.189708,73.4285195 167.141605,73.4285195 C164.982668,73.4285195 163.276181,72.8570447 162.022092,71.714078 C160.768004,70.5711113 159.950478,68.8725613 159.569489,66.618377 C156.394581,68.8725613 153.497522,70.5711113 150.878223,71.714078 C148.258924,72.8570447 145.917465,73.4285195 143.853775,73.4285195 C141.218602,73.4285195 138.948577,72.6665531 137.043633,71.1425975 C135.138688,69.6186419 134.18623,67.6026059 134.18623,65.094429 C134.18623,61.8242743 135.781597,58.9669004 138.972379,56.5222217 C142.163161,54.0775429 146.568279,51.696398 152.187866,49.3787155 L159.569489,46.3784429 L159.569489,44.473508 C159.569489,41.7748366 159.394871,39.8222978 159.045632,38.6158329 C158.696392,37.4093681 157.791557,36.3299157 156.331099,35.3774435 C154.870642,34.4249712 152.949852,33.9487423 150.568671,33.9487423 C145.80631,33.9487423 143.155302,35.5361722 142.615567,38.7110797 C142.107582,41.9494853 140.774141,43.5686639 138.615204,43.5686639 C136.67851,43.5686639 135.710178,42.6479545 135.710178,40.8065082 C135.710178,38.9968109 136.995996,37.0522092 139.567671,34.9726448 C142.139347,32.8930804 146.13967,31.8533138 151.568762,31.8533138 C155.600894,31.8533138 158.728131,32.4882858 160.950566,33.7582488 C163.173002,35.0282118 164.641374,36.472773 165.355729,38.0919758 C166.070083,39.7111786 166.427255,42.1875693 166.427255,45.5212222 L166.427255,61.2845591 C166.427255,64.9674518 166.617746,67.3327224 166.998735,68.3804418 C167.379724,69.4281613 168.205187,69.9520132 169.47515,69.9520132 C171.570589,69.9520132 172.872282,68.3963319 173.380267,65.2849225 L173.380267,65.2849225 Z M159.569489,48.6167415 L154.378541,50.71217 C146.18728,54.0458229 142.09171,58.2366379 142.09171,63.2847408 C142.09171,65.2849325 142.615562,66.8961739 143.663282,68.1185133 C144.711001,69.3408527 146.076191,69.9520132 147.758892,69.9520132 C149.251098,69.9520132 150.981397,69.4599099 152.94984,68.4756886 C154.918282,67.4914673 157.12481,66.0151574 159.569489,64.0467148 L159.569489,48.6167415 Z M187.559577,31.8533138 L188.035811,31.8533138 C188.956534,33.9805018 189.416889,36.7108813 189.416889,40.0445342 C191.544077,37.3141137 193.837913,35.2663291 196.298466,33.9011189 C198.759019,32.5359087 201.40209,31.8533138 204.227758,31.8533138 C207.434415,31.8533138 210.0378,32.5835316 212.037991,34.043989 C214.038183,35.5044465 215.435121,37.6950998 216.228848,40.6160147 C218.641778,37.6950998 221.118169,35.5044465 223.658095,34.043989 C226.198021,32.5835316 228.785531,31.8533138 231.420705,31.8533138 C234.436867,31.8533138 236.992629,32.551783 239.088068,33.9487423 C241.183507,35.3457016 242.453451,36.9331315 242.897938,38.7110797 C243.342425,40.4890279 243.564665,43.3622761 243.564665,47.3309104 L243.564665,59.0462605 C243.564665,63.5863782 243.651974,66.3485063 243.826594,67.3327276 C244.001214,68.3169489 244.509191,69.0471667 245.350542,69.5234028 C246.191892,69.9996389 247.755511,70.2377534 250.041444,70.2377534 L250.041444,72.4284286 L230.563484,72.4284286 L230.563484,70.2377534 C232.627174,70.2377534 234.079672,70.0075761 234.921023,69.5472145 C235.762373,69.0868529 236.278288,68.3883838 236.468782,67.451786 C236.659277,66.5151883 236.754523,63.7133745 236.754523,59.0462605 L236.754523,46.0450793 C236.754523,43.4099061 236.603717,41.4256187 236.302101,40.0921575 C236.000484,38.7586964 235.214707,37.6157468 233.944744,36.6632746 C232.674781,35.7108023 231.023853,35.2345734 228.991913,35.2345734 C226.928223,35.2345734 224.856627,35.9330425 222.777062,37.3300018 C220.697498,38.7269611 218.610027,40.8382429 216.514589,43.6639106 L216.514589,59.0462605 C216.514589,63.2053893 216.570149,65.8167115 216.68127,66.8803056 C216.792392,67.9438996 217.236872,68.7693631 218.014725,69.356721 C218.792577,69.9440789 220.181578,70.2377534 222.18177,70.2377534 L222.18177,72.4284286 L203.322914,72.4284286 L203.322914,70.2377534 C205.450102,70.2377534 206.934349,70.0155132 207.775699,69.5710262 C208.61705,69.1265391 209.140902,68.4439443 209.347271,67.5232211 C209.55364,66.6024979 209.656823,63.7768726 209.656823,59.0462605 L209.656823,48.2357545 C209.656823,44.8068544 209.521891,42.3225266 209.252024,40.7826965 C208.982157,39.2428663 208.16463,37.9252995 206.79942,36.8299564 C205.43421,35.7346133 203.73566,35.18695 201.703719,35.18695 C199.735276,35.18695 197.727178,35.821922 195.679362,37.091885 C193.631547,38.361848 191.544077,40.2667639 189.416889,42.8066899 L189.416889,59.0462605 C189.416889,63.3323856 189.480386,65.9992679 189.607382,67.0469874 C189.734378,68.0947068 190.210607,68.8884218 191.036083,69.4281561 C191.861559,69.9678903 193.337869,70.2377534 195.465057,70.2377534 L195.465057,72.4284286 L176.368084,72.4284286 L176.368084,70.2377534 C178.463523,70.2377534 179.931896,70.0075761 180.773246,69.5472145 C181.614597,69.0868529 182.130511,68.3963209 182.321006,67.4755977 C182.5115,66.5548746 182.606746,63.7451236 182.606746,59.0462605 L182.606746,47.3785338 C182.606746,42.9336633 182.535312,40.211221 182.392441,39.2111251 C182.24957,38.2110293 181.757467,37.457 180.916116,36.9490148 C180.074766,36.4410296 178.55877,36.1870408 176.368084,36.1870408 L176.368084,33.9963656 C180.876453,33.5518786 184.606913,32.8375351 187.559577,31.8533138 L187.559577,31.8533138 Z M257.410611,74 L257.410611,21.8047818 C257.410611,21.8047818 232.094677,22.1786009 229.088473,21.8047818 C226.082269,21.4309628 224.953586,17.7687767 224.953586,17.7687767 L257.410611,17.7687767 L257.410611,13.111104 C257.410611,13.111104 224.505569,13.5472746 220.691685,13.111104 C216.877801,12.6749334 215.165099,8.27974354 215.165099,8.27974354 C215.165099,8.27974354 255.08933,8.35729265 257.886845,8.27974354 C260.68436,8.20219443 262.315814,7.39077611 263.268286,6.94628906 L264.268377,6.94628906 L264.268377,37.8062356 C266.490812,35.8060439 268.744963,34.3138597 271.030896,33.3296384 C273.31683,32.3454171 275.634477,31.8533138 277.983909,31.8533138 C283.603495,31.8533138 288.207042,33.8058526 291.794688,37.7109888 C295.382333,41.616125 297.176129,46.600655 297.176129,52.6647283 C297.176129,58.7605507 295.33471,63.8403265 291.651817,67.9042081 C287.968925,71.9680897 283.190761,74 277.317182,74 C274.428016,74 271.896065,73.3967766 269.721254,72.1903118 C267.546442,70.9838469 265.728835,69.1900511 264.268377,66.8088705 C262.204687,68.8725604 260.537886,71.2695796 259.267923,74 L257.410611,74 Z M264.268377,40.6160147 L264.268377,55.9031178 C264.268377,59.8400031 264.530303,62.6735655 265.054163,64.4038901 C265.578023,66.1342147 266.840029,67.793079 268.840221,69.3805327 C270.840413,70.9679864 273.173935,71.7617014 275.840857,71.7617014 C279.936488,71.7617014 283.198656,70.0790257 285.627461,66.7136237 C288.056265,63.3482218 289.270649,58.5065605 289.270649,52.1884946 C289.270649,46.3784139 288.135636,41.9574215 285.865577,38.9253849 C283.595519,35.8933482 280.571465,34.3773526 276.793325,34.3773526 C274.634388,34.3773526 272.515169,34.8932674 270.435604,35.9251123 C268.35604,36.9569572 266.300318,38.5205757 264.268377,40.6160147 L264.268377,40.6160147 Z M312.450776,6.94628906 L312.450776,59.0462605 C312.450776,63.2053893 312.506336,65.8246487 312.617458,66.9041172 C312.72858,67.9835858 313.180997,68.8090493 313.974724,69.3805327 C314.768451,69.952016 316.181264,70.2377534 318.213205,70.2377534 L319.356165,70.2377534 L319.356165,72.4284286 L298.497128,72.4284286 L298.497128,70.2377534 L299.830582,70.2377534 C301.735527,70.2377534 303.092779,69.9758275 303.902381,69.4519678 C304.711982,68.928108 305.196148,68.1899531 305.354893,67.2374809 C305.513639,66.2850086 305.59301,63.5546291 305.59301,59.0462605 L305.59301,13.4572102 C305.59301,13.4572102 284.232282,14.0319942 280.799119,13.4572102 C277.365955,12.8824263 274.66819,8.27974354 274.66819,8.27974354 C274.66819,8.27974354 303.262812,8.37902234 305.997809,8.27974354 C308.732806,8.18046474 310.418841,7.39077611 311.403062,6.94628906 L312.450776,6.94628906 Z M325.153761,11.9467434 C325.153761,10.5815331 325.637928,9.40683499 326.606274,8.42261366 C327.574621,7.43839234 328.741382,6.94628906 330.106592,6.94628906 C331.471803,6.94628906 332.630626,7.43839234 333.583099,8.42261366 C334.535571,9.40683499 335.0118,10.5815331 335.0118,11.9467434 C335.0118,13.3437027 334.535571,14.5342751 333.583099,15.5184964 C332.630626,16.5027177 331.471803,16.994821 330.106592,16.994821 C328.741382,16.994821 327.574621,16.5027177 326.606274,15.5184964 C325.637928,14.5342751 325.153761,13.3437027 325.153761,11.9467434 L325.153761,11.9467434 Z M334.345073,31.8533138 L334.345073,59.0462605 C334.345073,63.2053893 334.40857,65.8246487 334.535566,66.9041172 C334.662562,67.9835858 335.122917,68.8090493 335.916644,69.3805327 C336.710371,69.952016 338.123184,70.2377534 340.155124,70.2377534 L341.155215,70.2377534 L341.155215,72.4284286 L320.153307,72.4284286 L320.153307,70.2377534 L321.772502,70.2377534 C324.026686,70.2377534 325.495059,69.9123303 326.177664,69.2614743 C326.860269,68.6106182 327.257127,67.8327776 327.368248,66.9279289 C327.47937,66.0230803 327.53493,63.3958837 327.53493,59.0462605 L327.53493,47.2356637 C327.53493,42.6637969 327.320627,39.8699202 326.892015,38.8539498 C326.463402,37.8379794 325.891927,37.2030074 325.177573,36.9490148 C324.463219,36.6950222 323.217086,36.5680278 321.439138,36.5680278 L320.153307,36.5680278 L320.153307,34.3773526 C325.804642,33.8058693 330.185949,32.9645314 333.297358,31.8533138 L334.345073,31.8533138 Z M354.191564,31.8533138 L355.477395,31.8533138 C356.207624,33.8217564 356.620356,36.504513 356.715603,39.901664 C359.001536,37.2029927 361.398555,35.1869567 363.906732,33.8534955 C366.414909,32.5200344 369.034169,31.8533138 371.764589,31.8533138 C374.875998,31.8533138 377.423824,32.5041601 379.408141,33.8058721 C381.392458,35.1075842 382.670339,36.7029513 383.241822,38.5920212 C383.813306,40.4810912 384.099043,43.2352821 384.099043,46.8546767 L384.099043,59.0462605 C384.099043,63.5546291 384.178415,66.3008829 384.33716,67.2851042 C384.495905,68.2693256 384.995946,69.0074805 385.837296,69.4995911 C386.678647,69.9917018 388.226391,70.2377534 390.480575,70.2377534 L390.480575,72.4284286 L370.526381,72.4284286 L370.526381,70.2377534 L371.431226,70.2377534 C373.717159,70.2377534 375.209343,69.9043931 375.907823,69.2376626 C376.606302,68.570932 377.00316,67.7930913 377.098407,66.9041172 C377.193654,66.0151431 377.241277,63.3958837 377.241277,59.0462605 L377.241277,46.4736897 C377.241277,43.3940294 377.090471,41.195439 376.788855,39.8778524 C376.487239,38.5602657 375.67765,37.3935047 374.360063,36.3775343 C373.042476,35.3615639 371.367738,34.8535864 369.335797,34.8535864 C367.018115,34.8535864 364.80365,35.5441184 362.692336,36.9252031 C360.581023,38.3062879 358.588798,40.377884 356.715603,43.1400535 L356.715603,59.0462605 C356.715603,63.5546291 356.802912,66.3008829 356.977531,67.2851042 C357.152151,68.2693256 357.660129,69.0074805 358.501479,69.4995911 C359.34283,69.9917018 360.906448,70.2377534 363.192382,70.2377534 L363.192382,72.4284286 L343.476305,72.4284286 L343.476305,70.2377534 C345.666991,70.2377534 347.190924,70.0155132 348.048149,69.5710262 C348.905374,69.1265391 349.437163,68.4518814 349.643532,67.5470328 C349.849901,66.6421842 349.953084,63.8086217 349.953084,59.0462605 L349.953084,47.4261572 C349.953084,42.8860395 349.865775,40.1318485 349.691155,39.1635017 C349.516535,38.195155 349.008558,37.4649372 348.167207,36.9728265 C347.325857,36.4807159 345.762238,36.2346642 343.476305,36.2346642 L343.476305,34.043989 C346.968703,33.6630001 350.54042,32.9327823 354.191564,31.8533138 L354.191564,31.8533138 Z" id="Ramblin"></path>
            <path d="M152.603516,100 C141.502515,101.39903 126.226562,100 126.226562,100 C121.553362,96.723942 114.399137,88.1485069 104.763672,74.2734375 C101.680323,69.8411237 98.4765791,65.5895386 95.1523437,61.5185547 C91.8281084,57.4475708 89.5397198,54.9664758 88.2871094,54.0751953 C87.0344989,53.1839148 85.0833466,52.7382813 82.4335937,52.7382813 L78.53125,52.7382813 L78.53125,74.4902344 C78.53125,82.1986063 78.7119123,87.2451053 79.0732422,89.6298828 C79.4345721,92.0146604 80.3981042,93.7851505 81.9638672,94.9414063 C83.5296302,96.097662 86.5286237,96.6757813 90.9609375,96.6757813 L95.6582031,96.6757813 L95.6582031,100 L48.7578125,100 L48.7578125,96.6757813 L51.9375,96.6757813 C56.1289272,96.6757813 59.0315675,96.1458386 60.6455078,95.0859375 C62.2594482,94.0260364 63.283201,92.3759878 63.7167969,90.1357422 C64.1503928,87.8954966 64.3671875,82.6803795 64.3671875,74.4902344 L64.3671875,32.299549 C64.3671875,32.299549 33.9452875,32.9108891 29.366073,32.299549 C24.7868585,31.6882089 23.1593232,26.4335938 23.1593232,26.4335938 L64.3671875,26.4335938 L64.3671875,20.1710662 C64.3671875,20.1710662 24.2153533,20.703511 19.510516,20.1710662 C14.8056788,19.6386214 11.8736929,14.1066169 11.8736929,14.1066169 L64.3671875,14.1066169 L64.3671875,11.5432433 C64.3671875,11.5432433 64.5914357,10.0686922 63.9706513,8.98255579 C63.3498669,7.89641939 63.1595238,7.8771248 61.0913727,7.89641939 C49.4905275,8.00464817 12.7030899,8.35907893 8.22681303,7.89641939 C2.95252382,7.35127879 0.709980284,1.28515625 0.709980284,1.28515625 C0.709980284,1.28515625 42.7386972,1.28515625 53.1186045,1.28515625 C65.224506,1.28515625 75.9983911,0.754134986 91.7432451,0.754134986 C101.089646,0.754134986 102.704072,1.50194445 108.557617,3.23632813 C114.411162,4.9707118 119.144513,7.81313129 122.757812,11.7636719 C126.371112,15.7142125 128.177734,20.4355194 128.177734,25.9277344 C128.177734,32.3353185 125.817081,37.8033628 121.095703,42.3320313 C116.374325,46.8606997 109.436895,49.6790309 100.283203,50.7871094 C104.378276,52.7623797 110.97847,59.8925167 120.083984,72.1777344 C127.503292,82.1504405 133.332661,88.67837 137.572266,91.7617188 C141.81187,94.8450675 146.822237,96.483072 152.603516,96.6757813 C152.603516,96.6757813 154.690992,99.7369208 152.603516,100 Z M78.53125,49.4140625 C82.1445493,49.3177079 85.8782359,49.173178 89.7324219,48.9804688 C93.5866078,48.7877595 96.9348816,48.2578168 99.7773438,47.390625 C102.619806,46.5234332 104.920239,45.2587974 106.678711,43.5966797 C108.437183,41.934562 109.822261,39.7545708 110.833984,37.0566406 C111.845708,34.3587105 112.351562,31.034525 112.351562,27.0839844 C112.351562,20.194627 110.629249,14.6784061 107.18457,10.5351563 C103.739892,6.39190637 96.2363859,4.3203125 84.6738281,4.3203125 C82.8912671,4.3203125 80.8437616,4.4166657 78.53125,4.609375 L78.53125,49.4140625 Z" id="R"></path>
        </g>
    </g>
</svg>