<?xml version="1.0" encoding="UTF-8"?>
<svg width="558px" height="836px" viewBox="0 0 558 836" version="1.1" xmlns="http://www.w3.org/2000/svg" xmlns:xlink="http://www.w3.org/1999/xlink">
    <!-- Generator: Sketch 43.2 (39069) - http://www.bohemiancoding.com/sketch -->
    <title>pattern_stars_red</title>
    <desc>Created with Sketch.</desc>
    <defs></defs>
    <g id="Random" stroke="none" stroke-width="1" fill="none" fill-rule="evenodd">
        <g id="pattern_stars_red">
            <rect id="Rectangle-9" fill="#FE6859" x="0" y="0" width="557" height="836"></rect>
            <path d="M69.3245541,50.2987843 C67.6246816,49.2049502 71.7468996,40.8220222 71.0244267,38.9865504 C70.3019537,37.1510787 61.8542997,37.0794822 61.8542997,35.0071637 C61.8542997,32.9348452 70.6020801,33.0874396 71.783421,31.3463449 C72.9647619,29.6052502 71.783421,21.7567642 73.4232682,21.7567642 C75.0631155,21.7567642 77.6033419,29.4081793 79.6105727,30.242386 C81.6178036,31.0765927 88.4252488,27.071171 90.0531633,28.9030268 C91.6810778,30.7348826 83.9714454,35.5539 83.5378893,37.0617639 C83.1043333,38.5696279 88.6711355,45.9787722 87.4189214,47.6023476 C86.1667073,49.2259229 79.3856587,42.7674198 77.4977552,42.7251128 C75.6098517,42.6828059 71.0244267,51.3926185 69.3245541,50.2987843 Z M41.0342062,57.7252854 C42.3160714,56.0803758 46.8479799,59.4464922 48.0662038,59.4464922 C49.2844277,59.4464922 52.4183982,53.9968478 53.7418471,55.2971544 C55.065296,56.5974611 53.6962857,60.7594548 54.5532731,62.0713326 C55.4102606,63.3832104 59.855024,62.9279584 59.855024,65.0404143 C59.855024,67.1528702 54.7366034,67.4869868 53.6962857,69.3036555 C52.6559681,71.1203242 52.7658939,74.8527394 51.7982575,75.2049359 C50.830621,75.5571325 49.3401138,71.3398142 47.8966143,70.3855569 C46.4531149,69.4312996 42.0506584,70.2767159 41.2207908,68.9709853 C40.3909233,67.6652547 44.0510189,64.7522206 44.0510189,62.9279584 C44.0510189,61.1036962 39.7523411,59.370195 41.0342062,57.7252854 Z M201.6059,13.0895309 C202.064973,13.5143811 201.526519,19.9553772 202.158934,21.3530493 C202.79135,22.7507213 209.988895,24.3778287 210.059973,25.5833259 C210.131052,26.7888232 202.714399,28.9462845 202.160149,29.6127201 C201.6059,30.2791558 201.659766,37.709174 200.831936,38.0732734 C200.004105,38.4373729 196.644994,32.9046003 194.916433,31.7385911 C193.187872,30.5725819 187.311453,33.7585533 186.321013,32.383764 C185.330574,31.0089747 190.475352,27.352185 190.353648,25.8125587 C190.231944,24.2729324 184.626675,20.2315906 185.313564,19.0406735 C186.000452,17.8497565 192.289571,20.7676146 194.077871,19.9041441 C195.86617,19.0406735 201.146827,12.6646807 201.6059,13.0895309 Z M54.967046,148.590811 C56.3117967,148.590811 56.8296767,152.165506 58.5384325,153.533007 C60.2471882,154.900508 64.7397557,152.872007 65.1467796,154.008696 C65.5538035,155.145385 62.4477645,158.992878 62.4477645,160.840823 C62.4477645,162.688769 65.2994136,165.360278 64.7397557,166.802648 C64.1800979,168.245018 58.4275764,165.506293 57.3053652,166.012178 C56.183154,166.518062 52.5704034,170.059666 51.4382648,169.284501 C50.3061262,168.509335 51.4382648,165.174966 50.2444935,162.605007 C49.0507222,160.035049 44.4770809,158.283274 44.67232,157.248755 C44.8675591,156.214236 50.4306325,155.756334 51.9309126,154.749529 C53.4311927,153.742724 53.6222954,148.590811 54.967046,148.590811 Z M214.454534,93.4592682 C216.015981,92.5855749 218.00382,100.89649 220.631994,100.986846 C223.260168,101.077202 230.145544,96.5832821 230.879969,98.2410593 C231.614395,99.8988364 224.811908,106.009463 224.811908,107.331577 C224.811908,108.653692 230.110447,113.858888 229.605273,114.760958 C229.100099,115.663028 221.09087,112.189537 219.586923,113.221914 C218.082975,114.254291 214.004993,120.937298 213.524461,120.544136 C213.04393,120.150974 213.511767,111.608941 212.968882,110.680362 C212.425997,109.751783 203.388498,108.366195 203.388498,106.929828 C203.388498,105.493461 212.502165,105.160039 213.511767,103.477619 C214.521368,101.795199 212.893087,94.3329616 214.454534,93.4592682 Z M422.925195,68.1666781 C423.459146,67.7032358 426.536564,72.3642117 428.766309,72.5819872 C430.996053,72.7997627 436.221773,71.2927384 436.900536,72.3642117 C437.579299,73.435685 433.777376,76.0715272 433.777376,77.420575 C433.777376,78.7696229 437.852411,82.0063559 437.09109,83.4808031 C436.329768,84.9552504 431.361318,83.2884645 430.227145,84.4478513 C429.092972,85.6072381 426.637196,90.3253354 425.327866,89.3208013 C424.018535,88.3162671 424.937164,84.3097334 423.593917,82.783743 C422.250671,81.2577526 417.325955,81.9557052 417.268833,80.2041297 C417.211712,78.4525542 421.943197,76.7241843 422.675958,75.6357531 C423.408719,74.5473218 422.391243,68.6301205 422.925195,68.1666781 Z M498.563952,92.3811073 C499.663771,92.0315197 506.014233,103.128894 508.382973,103.090846 C510.751714,103.052797 520.182775,98.7712436 521.247472,100.359184 C522.31217,101.947125 514.548398,109.454966 514.62547,112.859462 C514.702542,116.263957 523.234431,122.842383 522.384364,125.007224 C521.534297,127.172066 510.801469,119.978366 507.887047,121.213467 C504.972624,122.448568 499.461498,134.502999 497.834858,133.361555 C496.208219,132.220111 499.693364,119.676908 498.400377,117.147194 C497.107391,114.617481 485.272794,111.756716 485.272794,109.964551 C485.272794,108.172386 496.353583,107.684589 497.965913,105.842019 C499.578244,103.999448 497.464133,92.7306949 498.563952,92.3811073 Z M486.46278,176.048816 C487.849161,175.503231 490.349668,181.69585 492.818608,182.618071 C495.287549,183.540292 499.671955,180.148413 501.094565,181.663926 C502.517174,183.179439 496.086736,187.622875 496.044768,190.204962 C496.0028,192.787049 499.963938,193.886314 499.022706,195.611667 C498.081474,197.33702 494.512755,194.464899 491.107245,194.599053 C487.701735,194.733207 485.0764,200.334687 484.011057,198.988122 C482.945714,197.641558 485.0764,192.202929 484.196506,189.774162 C483.316611,187.345396 477.248462,187.086055 477.248462,185.365365 C477.248462,183.644675 483.914208,183.366681 485.0764,181.69585 C486.238592,180.02502 485.0764,176.594401 486.46278,176.048816 Z M386.269919,226.810753 C387.48143,226.356473 391.923439,235.260113 393.087976,235.459307 C394.252513,235.6585 402.614169,230.072765 403.543539,231.320844 C404.47291,232.568924 397.071841,238.772158 397.119707,240.945148 C397.167572,243.118138 402.722982,247.51347 401.515633,248.741333 C400.308285,249.969195 394.259351,246.879917 392.500505,248.147023 C390.741658,249.41413 388.225283,257.011717 386.508654,255.712501 C384.792024,254.413286 386.822011,246.351014 385.504957,244.351352 C384.187904,242.35169 375.693353,242.434637 375.693353,240.814334 C375.693353,239.194031 384.465882,237.648648 385.311413,235.260113 C386.156944,232.871578 385.058408,227.265032 386.269919,226.810753 Z M364.072955,221.839841 C364.559641,222.171334 363.734921,225.570998 365.038002,227.482658 C366.341082,229.394319 370.834228,229.538214 370.986447,231.234032 C371.138666,232.92985 366.520951,234.709805 366.166565,236.118725 C365.81218,237.527646 366.515599,242.964432 365.776801,243.49928 C365.038002,244.034129 361.219141,237.838328 360.026062,237.544889 C358.832984,237.251451 353.661393,240.084454 353.202059,239.355467 C352.742726,238.626479 356.082928,233.82176 356.012765,231.865207 C355.942601,229.908653 351.556783,228.084103 352.130875,226.661209 C352.704968,225.238316 357.909857,227.227572 359.314318,226.426934 C360.718779,225.626296 363.58627,221.508348 364.072955,221.839841 Z M320.529308,182.255441 C321.221443,181.846698 323.822962,185.670869 324.831322,186.232084 C325.839682,186.7933 329.695514,183.868817 329.990561,185.050451 C330.285609,186.232084 327.783241,189.055491 327.783241,190.428208 C327.783241,191.800925 330.907952,195.783344 330.449257,196.413388 C329.990561,197.043432 324.95502,195.65772 324.040999,196.344078 C323.126978,197.030437 321.159353,200.287992 319.837174,199.983318 C318.514996,199.678644 320.446041,193.968778 319.687003,193.380127 C318.927966,192.791476 314.195174,192.417011 314.138378,191.42261 C314.081583,190.428208 319.124825,189.207588 319.405914,188.12318 C319.687003,187.038772 319.837174,182.664185 320.529308,182.255441 Z M327.16521,176.221323 C326.36797,176.578712 324.508256,173.610786 324.057524,173.014345 C323.606793,172.417903 318.790204,173.236225 318.670847,172.425724 C318.551491,171.615223 321.711033,169.603268 322.039348,168.780425 C322.367663,167.957583 320.66097,164.661102 321.128194,164.074182 C321.595418,163.487261 325.295294,164.889613 325.862661,164.889613 C326.430029,164.889613 329.154822,162.696993 329.922817,163.017147 C330.690812,163.337301 329.630547,167.725771 329.65435,168.178203 C329.678153,168.630635 332.784138,170.434582 332.744693,171.189825 C332.705247,171.945068 328.173787,171.348967 327.810958,171.694114 C327.448128,172.039261 327.962449,175.863934 327.16521,176.221323 Z M117.465781,207.16577 C118.408471,207.16577 119.023284,212.41181 120.301634,213.553799 C121.579984,214.695787 126.525892,214.573298 126.980996,216.427887 C127.436099,218.282476 122.156561,220.172254 121.488625,221.12002 C120.820688,222.067786 121.890604,226.899326 121.096119,227.61125 C120.301634,228.323174 116.678063,224.169382 115.360124,224.035051 C114.042185,223.900719 109.159889,225.35705 108.818477,223.944707 C108.477065,222.532363 111.086889,218.425605 111.086889,217.426746 C111.086889,216.427887 107.911654,213.80825 108.818477,212.545804 C109.7253,211.283357 112.833877,212.545804 114.097,212.545804 C115.360124,212.545804 116.523091,207.16577 117.465781,207.16577 Z M319.470254,629.54202 C317.770382,628.448186 321.8926,620.065258 321.170127,618.229786 C320.447654,616.394314 312,616.322718 312,614.2504 C312,612.178081 320.74778,612.330675 321.929121,610.589581 C323.110462,608.848486 321.929121,601 323.568969,601 C325.208816,601 327.749042,608.651415 329.756273,609.485622 C331.763504,610.319829 338.570949,606.314407 340.198864,608.146263 C341.826778,609.978118 334.117146,614.797136 333.68359,616.305 C333.250034,617.812864 338.816836,625.222008 337.564622,626.845583 C336.312408,628.469159 329.531359,622.010656 327.643456,621.968349 C325.755552,621.926042 321.170127,630.635854 319.470254,629.54202 Z M291.238699,636.628637 C292.520564,634.983727 297.052473,638.349844 298.270697,638.349844 C299.488921,638.349844 302.622891,632.900199 303.94634,634.200506 C305.269789,635.500812 303.900779,639.662806 304.757766,640.974684 C305.614754,642.286562 310.059517,641.83131 310.059517,643.943766 C310.059517,646.056221 304.941096,646.390338 303.900779,648.207007 C302.860461,650.023675 302.970387,653.756091 302.002751,654.108287 C301.035114,654.460484 299.544607,650.243166 298.101107,649.288908 C296.657608,648.334651 292.255151,649.180067 291.425284,647.874337 C290.595416,646.568606 294.255512,643.655572 294.255512,641.83131 C294.255512,640.007047 289.956834,638.273546 291.238699,636.628637 Z M471.350654,612 C471.809727,612.42485 471.271273,618.865846 471.903688,620.263518 C472.536103,621.66119 479.733649,623.288298 479.804727,624.493795 C479.875805,625.699292 472.459152,627.856754 471.904903,628.523189 C471.350654,629.189625 471.404519,636.619643 470.576689,636.983743 C469.748859,637.347842 466.389748,631.815069 464.661187,630.64906 C462.932626,629.483051 457.056207,632.669022 456.065767,631.294233 C455.075327,629.919444 460.220105,626.262654 460.098401,624.723028 C459.976697,623.183402 454.371429,619.14206 455.058317,617.951143 C455.745206,616.760226 462.034325,619.678084 463.822624,618.814613 C465.610924,617.951143 470.891581,611.57515 471.350654,612 Z M305.300793,728 C306.645543,728 307.163423,731.574696 308.872179,732.942197 C310.580935,734.309698 315.073502,732.281196 315.480526,733.417885 C315.88755,734.554574 312.781511,738.402067 312.781511,740.250013 C312.781511,742.097958 315.63316,744.769467 315.073502,746.211837 C314.513845,747.654207 308.761323,744.915482 307.639112,745.421367 C306.516901,745.927251 302.90415,749.468855 301.772011,748.69369 C300.639873,747.918525 301.772011,744.584155 300.57824,742.014196 C299.384469,739.444238 294.810828,737.692463 295.006067,736.657944 C295.201306,735.623425 300.764379,735.165523 302.264659,734.158718 C303.764939,733.151913 303.956042,728 305.300793,728 Z M435.066036,722 C436.627483,721.126307 438.615322,729.437221 441.243496,729.527578 C443.87167,729.617934 450.757046,725.124014 451.491471,726.781791 C452.225896,728.439568 445.423409,734.550195 445.423409,735.872309 C445.423409,737.194424 450.721949,742.39962 450.216775,743.30169 C449.711601,744.20376 441.702372,740.730268 440.198424,741.762645 C438.694477,742.795022 434.616495,749.47803 434.135963,749.084868 C433.655432,748.691706 434.123269,740.149673 433.580384,739.221094 C433.037499,738.292514 424,736.906926 424,735.47056 C424,734.034193 433.113667,733.70077 434.123269,732.018351 C435.13287,730.335931 433.504589,722.873693 435.066036,722 Z M131.656875,630 C132.190826,629.536558 135.268244,634.197534 137.497988,634.415309 C139.727733,634.633085 144.953452,633.12606 145.632216,634.197534 C146.310979,635.269007 142.509056,637.904849 142.509056,639.253897 C142.509056,640.602945 146.584091,643.839678 145.822769,645.314125 C145.061448,646.788572 140.092998,645.121786 138.958825,646.281173 C137.824652,647.44056 135.368876,652.158657 134.059545,651.154123 C132.750215,650.149589 133.668844,646.143055 132.325597,644.617065 C130.982351,643.091074 126.057634,643.789027 126.000513,642.037452 C125.943391,640.285876 130.674877,638.557506 131.407638,637.469075 C132.140399,636.380644 131.122923,630.463442 131.656875,630 Z M207.291158,654 C208.390977,653.650412 214.741439,664.747786 217.11018,664.709738 C219.47892,664.67169 228.909981,660.390136 229.974679,661.978077 C231.039376,663.566018 223.275604,671.073859 223.352676,674.478354 C223.429748,677.88285 231.961637,684.461276 231.11157,686.626117 C230.261503,688.790959 219.528676,681.597259 216.614253,682.83236 C213.699831,684.067461 208.188704,696.121892 206.562065,694.980448 C204.935426,693.839004 208.42057,681.2958 207.127584,678.766087 C205.834597,676.236373 194,673.375609 194,671.583444 C194,669.791279 205.080789,669.303482 206.69312,667.460911 C208.30545,665.618341 206.191339,654.349588 207.291158,654 Z M195.214319,738 C196.600699,737.454415 199.101206,743.647034 201.570147,744.569255 C204.039088,745.491476 208.423494,742.099597 209.846103,743.61511 C211.268712,745.130623 204.838274,749.574059 204.796306,752.156146 C204.754338,754.738233 208.715477,755.837498 207.774244,757.562851 C206.833012,759.288204 203.264293,756.416083 199.858783,756.550237 C196.453273,756.684391 193.827938,762.285871 192.762595,760.939306 C191.697253,759.592741 193.827938,754.154113 192.948044,751.725346 C192.06815,749.29658 186,749.037239 186,747.316549 C186,745.595858 192.665746,745.317865 193.827938,743.647034 C194.99013,741.976204 193.827938,738.545585 195.214319,738 Z M95.5765658,789.016808 C96.7880769,788.562528 101.230086,797.466168 102.394623,797.665361 C103.55916,797.864555 111.920816,792.27882 112.850186,793.526899 C113.779557,794.774978 106.378488,800.978212 106.426353,803.151202 C106.474219,805.324192 112.029629,809.719525 110.82228,810.947387 C109.614932,812.17525 103.565998,809.085971 101.807152,810.353078 C100.048305,811.620185 97.5319298,819.217771 95.8153004,817.918556 C94.098671,816.61934 96.1286581,808.557069 94.8116044,806.557406 C93.4945506,804.557744 85,804.640692 85,803.020389 C85,801.400086 93.7725292,799.854703 94.6180599,797.466168 C95.4635906,795.077633 94.3650548,789.471087 95.5765658,789.016808 Z M72.9938789,784 C73.4805645,784.331493 72.6558451,787.731157 73.9589255,789.642817 C75.262006,791.554478 79.7551512,791.698372 79.9073705,793.39419 C80.0595898,795.090009 75.4418745,796.869964 75.087489,798.278884 C74.7331034,799.687805 75.4365231,805.124591 74.6977243,805.659439 C73.9589255,806.194288 70.1400643,799.998487 68.9469861,799.705048 C67.7539078,799.41161 62.5823165,802.244613 62.1229828,801.515625 C61.6636492,800.786638 65.0038521,795.981919 64.9336885,794.025365 C64.8635249,792.068812 60.4777062,790.244262 61.0517989,788.821368 C61.6258917,787.398474 66.830781,789.387731 68.2352419,788.587093 C69.6397028,787.786455 72.5071934,783.668507 72.9938789,784 Z M29.3914064,744.030505 C30.0835406,743.621762 32.6850603,747.445932 33.6934199,748.007148 C34.7017795,748.568364 38.5576119,745.64388 38.8526594,746.825514 C39.1477069,748.007148 36.6453385,750.830555 36.6453385,752.203272 C36.6453385,753.575989 39.77005,757.558407 39.3113547,758.188452 C38.8526594,758.818496 33.8171184,757.432784 32.903097,758.119142 C31.9890755,758.8055 30.0214507,762.063055 28.6992722,761.758382 C27.3770937,761.453708 29.3081385,755.743841 28.5491012,755.15519 C27.7900639,754.566539 23.0572715,754.192075 23.0004761,753.197673 C22.9436806,752.203272 27.9869227,750.982651 28.268012,749.898244 C28.5491012,748.813836 28.6992722,744.439248 29.3914064,744.030505 Z M36.4976584,738.23611 C35.7004193,738.593499 33.8407049,735.625573 33.3899732,735.029131 C32.9392416,734.43269 28.1226527,735.251012 28.0032964,734.440511 C27.88394,733.63001 31.0434823,731.618055 31.3717972,730.795212 C31.7001121,729.972369 29.9934186,726.675889 30.4606425,726.088968 C30.9278664,725.502048 34.6277426,726.9044 35.1951102,726.9044 C35.7624778,726.9044 38.4872706,724.71178 39.2552656,725.031934 C40.0232607,725.352088 38.9629956,729.740558 38.9867989,730.19299 C39.0106021,730.645422 42.116587,732.449368 42.0771416,733.204612 C42.0376962,733.959855 37.5062363,733.363753 37.1434067,733.708901 C36.7805771,734.054048 37.2948974,737.878721 36.4976584,738.23611 Z M387.81019,806 C388.75288,806 389.367693,811.24604 390.646043,812.388028 C391.924393,813.530016 396.870302,813.407527 397.325405,815.262116 C397.780508,817.116705 392.50097,819.006484 391.833034,819.95425 C391.165098,820.902015 392.235014,825.733556 391.440528,826.44548 C390.646043,827.157403 387.022472,823.003612 385.704533,822.86928 C384.386594,822.734948 379.504299,824.191279 379.162887,822.778936 C378.821474,821.366593 381.431298,817.259834 381.431298,816.260975 C381.431298,815.262116 378.256063,812.64248 379.162887,811.380033 C380.06971,810.117586 383.178286,811.380033 384.44141,811.380033 C385.704533,811.380033 386.8675,806 387.81019,806 Z M79.87884,309.926172 C80.8705908,309.926172 82.9329346,318.734819 84.9763747,319.186202 C87.0198148,319.637585 93.2289772,316.491738 93.5378908,317.83897 C93.8468043,319.186202 89.7064406,324.298952 89.0683266,325.353869 C88.4302126,326.408785 91.8826674,332.269844 90.475497,333.41974 C89.0683266,334.569636 84.0307304,329.112932 82.9919509,329.112932 C81.9531714,329.112932 78.6196714,336.757389 76.8685466,336.019685 C75.1174217,335.281981 77.8026643,326.692801 76.7735672,326.023335 C75.7444701,325.353869 69.3637914,324.845314 69.7077459,322.451003 C70.0517004,320.056693 76.8215179,322.231997 77.4236688,320.035484 C78.0258197,317.83897 78.8870891,309.926172 79.87884,309.926172 Z M223.329143,287.317426 C224.572956,287.317426 223.329143,294.58319 223.817173,295.076157 C224.305204,295.569125 230.869115,298.496187 230.869115,299.764286 C230.869115,301.032384 223.329143,301.297118 222.880231,302.319893 C222.431319,303.342668 220.853292,309.159153 219.670246,309.648322 C218.4872,310.137492 216.881827,303.730433 215.130235,303.246581 C213.378643,302.762728 208.17438,304.64155 207.891057,303.730433 C207.607733,302.819317 212.831746,298.348048 212.831746,296.82623 C212.831746,295.304411 208.597846,290.600711 209.494151,289.60642 C210.390455,288.61213 216.80435,291.48904 217.822947,291.48904 C218.841544,291.48904 222.085331,287.317426 223.329143,287.317426 Z M279.800888,299.15852 C280.77467,298.705811 281.963792,305.260987 283.275967,305.366949 C284.588142,305.47291 289.338176,302.951104 289.953436,304.165293 C290.568696,305.379482 286.290361,308.472112 286.290361,309.800618 C286.290361,311.129124 288.492764,316.132098 288.003974,316.893957 C287.515184,317.655816 283.662973,315.019693 282.507652,315.019693 C281.35233,315.019693 278.211846,319.92848 277.334911,319.051165 C276.457976,318.17385 276.962717,313.892856 276.873846,312.626256 C276.784975,311.359656 271.575775,308.619851 271.62059,307.847737 C271.665405,307.075624 277.53544,306.401877 278.211846,305.815861 C278.888252,305.229845 278.827106,299.61123 279.800888,299.15852 Z M304.49142,334.447854 C305.391902,334.447854 308.531627,339.459564 310.253595,339.907716 C311.975563,340.355868 317.486317,338.998878 317.629118,339.97342 C317.771919,340.947961 313.767413,346.84838 313.767413,348.107384 C313.767413,349.366388 317.157419,353.082634 316.890806,355.00741 C316.624194,356.932186 309.825951,353.082634 308.531627,353.082634 C307.237302,353.082634 302.816166,357.572132 302.029621,357.349955 C301.243076,357.127778 301.896315,349.257008 301.585267,348.262718 C301.274218,347.268427 295.35519,344.588629 295.35519,343.783094 C295.35519,342.977559 302.021645,341.831733 302.816166,341.281797 C303.610687,340.731861 303.590938,334.447854 304.49142,334.447854 Z M405.019326,332.94187 C406.028354,333.535416 405.019326,339.760106 405.965981,340.995989 C406.912637,342.231873 412.829487,343.63727 412.770636,344.837943 C412.711784,346.038616 405.019326,347.168869 404.381515,348.161801 C403.743704,349.154734 404.381515,354.664652 402.737191,355.738568 C401.092867,356.812485 397.577364,349.184411 396.20919,348.8479 C394.841016,348.51139 388.586146,350.324221 388.468443,349.184411 C388.35074,348.044601 392.380314,344.011506 392.678093,342.590013 C392.975872,341.16852 389.124865,337.682191 390.117797,336.696804 C391.110729,335.711417 398.159844,337.799894 399.293115,337.682191 C400.426385,337.564488 404.010297,332.348324 405.019326,332.94187 Z M547.289313,345.534102 C548.697727,344.463707 550.509552,349.576755 550.509552,349.576755 C550.509552,349.576755 556.360005,348.699514 557.034535,349.681883 C557.709065,350.664252 554.316295,354.291423 554.316295,354.291423 C554.316295,354.291423 555.648253,362.200277 554.982274,362.64483 C554.316295,363.089383 549.624766,360.370743 549.624766,360.370743 C549.624766,360.370743 544.813521,362.074925 544.357296,362.074925 C543.90107,362.074925 543.734241,358.428137 544.030342,357.839621 C544.326444,357.251105 540.120483,354.187803 540.179838,353.659648 C540.239192,353.131493 544.650548,350.990199 545.384432,350.813645 C546.118317,350.63709 545.880898,346.604497 547.289313,345.534102 Z M23.6529708,402.983066 C24.1719684,402.46737 27.3910359,405.682747 28.6817319,406.097829 C29.9724278,406.512911 31.1386187,404.569194 32.3143271,405.368086 C33.4900355,406.166977 31.9670337,408.764879 31.9983057,410.622549 C32.0295776,412.480218 34.8626989,413.865896 34.0612825,415.397832 C33.2598662,416.929769 28.8217758,415.228459 28.2250838,415.228459 C27.6283919,415.228459 24.9949449,419.474644 24.0604772,419.087144 C23.1260095,418.699644 22.9780019,414.570777 22.3482899,413.374091 C21.7185779,412.177405 19.0210331,409.719547 19.0210331,408.764879 C19.0210331,407.810211 22.1727009,408.563456 22.7105394,407.52954 C23.2483779,406.495624 23.1339731,403.498762 23.6529708,402.983066 Z M72.1323522,386.106058 C73.5297729,384.865171 77.735198,391.32504 78.761918,391.466276 C79.7886379,391.607512 85.481135,390.544149 86.0350515,391.755508 C86.588968,392.966867 82.5343846,397.340922 82.5343846,398.10438 C82.5343846,398.867839 86.077031,403.681611 85.9937834,404.826799 C85.9105359,405.971987 79.7733403,404.772012 78.1816753,404.93993 C76.5900103,405.107848 74.007557,410.762991 72.7862369,409.994552 C71.5649169,409.226113 72.9662509,403.830318 72.6748844,402.238653 C72.3835179,400.646988 64.8727375,399.424601 64.8727375,398.061333 C64.8727375,396.698065 70.4076334,395.49311 71.5649169,393.529322 C72.7222003,391.565533 70.7349315,387.346945 72.1323522,386.106058 Z M39.3260898,440.480214 C39.8836265,440.75909 40.7991307,445.176913 41.8431305,446.095667 C42.8871304,447.014422 49.0349849,446.503256 49.4261057,447.561558 C49.8172264,448.619859 44.124632,453.004095 43.8689409,454.167273 C43.6132498,455.330451 44.76581,461.741147 43.0167094,462.024791 C41.2676088,462.308435 38.6008371,457.859626 36.7561774,456.803275 C34.9115177,455.746924 29.6605322,458.128751 29.0553243,456.305977 C28.4501164,454.483203 32.4287136,452.413188 32.4287136,451.103746 C32.4287136,449.794304 28.2943182,446.2571 28.6748213,445.396634 C29.0553243,444.536168 34.1112911,446.194694 35.1331889,445.408335 C36.1550866,444.621977 38.7685532,440.201337 39.3260898,440.480214 Z M240.814213,434.765428 C241.559079,433.959373 247.194799,438.50074 249.147768,438.50074 C251.100736,438.50074 258.710606,435.252199 259.316619,435.862527 C259.922631,436.472854 256.50072,444.605581 256.678797,445.878404 C256.856875,447.151226 262.762849,450.396237 262.762849,451.594141 C262.762849,452.792046 253.412605,452.635934 252.494761,452.709283 C251.576917,452.782632 249.124233,460.026149 248.06832,460.026149 C247.012407,460.026149 246.339713,454.058592 245.375977,452.635934 C244.41224,451.213275 236.492108,451.692986 236.400323,450.396237 C236.308539,449.099488 241.256761,444.659318 241.879147,443.512013 C242.501533,442.364708 240.069347,435.571484 240.814213,434.765428 Z M413.231964,434.97512 C414.23219,434.369719 418.146289,437.900753 419.546382,437.900753 C420.946475,437.900753 424.471349,436.204401 425.264361,435.839257 C426.057374,435.474113 423.091977,442.871083 423.091977,444.271176 C423.091977,445.671269 425.869761,447.578195 425.869761,449.31487 C425.869761,451.051545 421.459469,449.801542 419.829761,450.763686 C418.200053,451.72583 416.635869,455.566564 415.693887,455.566564 C414.751904,455.566564 414.321796,449.925311 413.863125,448.655706 C413.404455,447.386102 407.953054,446.619411 407.953054,445.731193 C407.953054,444.842974 411.434244,442.382171 412.293901,440.287632 C413.153558,438.193093 412.231737,435.58052 413.231964,434.97512 Z M489.920244,445.146075 C490.866385,445.146075 491.126462,450.229904 491.655583,451.127841 C492.184705,452.025779 497.783082,452.640472 497.983745,453.41547 C498.184407,454.190469 494.187595,457.078218 493.873336,457.992224 C493.559076,458.906229 494.823961,463.437768 494.187595,464.279654 C493.551229,465.121541 490.616397,462.623907 488.634433,462.493121 C486.652469,462.362336 484.28673,466.140175 483.172821,465.093889 C482.058912,464.047603 483.562189,460.739845 483.144795,458.752276 C482.727402,456.764706 478.200347,453.621365 478.690233,452.640472 C479.180119,451.659579 484.398096,452.101261 485.46045,451.17754 C486.522804,450.253819 488.974102,445.146075 489.920244,445.146075 Z M411.311025,529.961139 C412.64382,529.366876 415.384587,536.247792 416.471443,536.80733 C417.558299,537.366867 423.807006,535.152702 424.218335,536.247792 C424.629665,537.342882 420.570423,542.118293 420.570423,544.261028 C420.570423,546.403764 423.555339,549.077419 422.90344,550.66367 C422.251541,552.249922 417.04888,549.599368 414.939606,549.93731 C412.830332,550.275252 409.793865,555.160376 408.807962,554.13402 C407.822059,553.107664 408.936481,547.767535 408.191505,546.020189 C407.446528,544.272842 401.383261,540.348203 401.48314,539.486881 C401.583019,538.625558 408.302839,539.932936 409.793865,537.967573 C411.284892,536.002211 409.97823,530.555401 411.311025,529.961139 Z M502.723436,510.424019 C503.683564,510.047056 506.957378,516.476905 508.647446,516.529172 C510.337514,516.581438 515.786114,515.121199 516.155201,516.476905 C516.524288,517.832611 512.418149,521.964689 512.418149,523.273336 C512.418149,524.581982 515.215837,528.622414 514.556062,529.843874 C513.896288,531.065334 509.252806,527.712047 508.236832,527.75429 C507.220858,527.796533 501.959486,533.941422 501.189809,533.480689 C500.420132,533.019957 500.391135,526.149065 499.826227,524.600045 C499.26132,523.051024 493.991357,521.801283 494.160328,520.874806 C494.329299,519.948329 500.668576,518.189885 501.459733,517.519729 C502.25089,516.849572 501.763308,510.800982 502.723436,510.424019 Z M203.875046,535.531498 C205.054718,535.531498 210.941251,546.418776 213.250333,546.697876 C215.559415,546.976976 227.123156,542.388378 228.149086,543.893273 C229.175016,545.398167 218.856583,553.755211 218.856583,556.070206 C218.856583,558.385201 225.548486,568.924194 224.761447,569.977325 C223.974408,571.030456 213.340804,563.866093 212.095496,564.075418 C210.850189,564.284743 203.056076,574.931356 202.083364,574.193395 C201.110652,573.455435 202.083364,561.081003 201.737445,559.766511 C201.391527,558.45202 186.63942,555.000519 186.988295,553.755211 C187.33717,552.509903 202.681774,550.556793 203.056076,549.657404 C203.430378,548.758015 202.695374,535.531498 203.875046,535.531498 Z M190.555694,516.309647 C191.735957,517.172375 189.423327,523.450949 189.423327,524.903808 C189.423327,526.356667 195.678249,527.717911 195.678249,529.838917 C195.678249,531.959922 188.950867,531.148678 188.094644,532.595032 C187.238421,534.041387 187.709698,538.397598 186.114924,539.146202 C184.52015,539.894806 181.632808,533.952098 180.418203,532.637607 C179.203598,531.323115 173.302328,535.251807 172.748858,532.795488 C172.195388,530.339168 177.730089,527.499086 177.453353,525.625211 C177.176618,523.751337 173.60922,518.831097 174.871676,518.156913 C176.134131,517.482729 181.383228,521.437524 182.715459,521.437524 C184.04769,521.437524 189.375431,515.44692 190.555694,516.309647 Z M127.493807,505.07586 C128.730837,505.07586 128.69181,509.459272 129.675165,510.062413 C130.658521,510.665553 136.50721,509.459272 137.046488,511.242676 C137.585767,513.02608 132.906106,514.760382 132.075901,515.735481 C131.245696,516.710581 134.453575,522.273051 133.861079,523.491158 C133.268582,524.709266 128.130653,520.343593 126.487982,520.205225 C124.845311,520.066858 122.875052,524.954661 121.509116,524.401191 C120.14318,523.847721 121.935232,518.435422 120.515117,516.38711 C119.095002,514.338797 115.891631,512.735744 116.418492,511.287025 C116.945353,509.838305 122.036568,509.887384 123.578124,509.459272 C125.119681,509.031161 126.256778,505.07586 127.493807,505.07586 Z M138.176989,297.5465 C138.779176,296.910235 144.020444,300.500902 145.033977,300.500902 C146.047511,300.500902 150.503771,295.995729 151.105957,296.959548 C151.708144,297.923367 149.128605,302.451393 149.128605,303.625696 C149.128605,304.8 154.842561,307.995758 154.432015,309.652372 C154.02147,311.308987 148.319141,309.808332 147.521705,310.32873 C146.724269,310.849128 145.240052,316.355005 144.020444,316.355005 C142.800836,316.355005 141.689878,311.635739 140.634247,310.785381 C139.578617,309.935023 133.645356,309.955069 133.645356,308.887812 C133.645356,307.820555 138.295516,304.861742 138.603171,304.158122 C138.910826,303.454502 137.574803,298.182765 138.176989,297.5465 Z M249.631125,308.018263 C250.577182,307.443261 253.67285,312.935785 254.895395,312.935785 C256.117939,312.935785 261.888089,311.193688 262.038866,312.314448 C262.189643,313.435209 259.066629,318.45563 259.066629,319.320056 C259.066629,320.184482 262.823892,326.326043 262.335102,327.25501 C261.846313,328.183976 255.372791,323.924631 254.400528,323.924631 C253.428266,323.924631 248.224762,329.428169 247.602666,328.850508 C246.98057,328.272847 248.648608,322.360655 247.652418,320.610962 C246.656229,318.86127 242.398782,318.129794 242.398782,317.235388 C242.398782,316.340983 247.743948,315.028048 248.648608,314.480771 C249.553268,313.933494 248.685068,308.593265 249.631125,308.018263 Z M52.2189764,426.115415 C53.3298632,426.115415 54.9455948,431.163637 55.28816,432.217771 C55.6307252,433.271905 62.5932544,433.753958 62.6470437,434.778691 C62.7008331,435.803423 56.3119809,438.807877 55.965541,439.915573 C55.6191012,441.023269 56.2401858,446.009952 55.1803534,446.470352 C54.1205209,446.930752 49.3462608,443.092335 48.5230103,442.772334 C47.6997598,442.452333 43.293364,444.85462 42.7153565,443.641625 C42.137349,442.42863 44.7194654,438.79329 45.0066458,437.469753 C45.2938262,436.146217 39.6682813,432.173554 40.3632123,431.163637 C41.0581433,430.153719 47.7556004,431.820961 48.6971419,431.820961 C49.6386833,431.820961 51.1080897,426.115415 52.2189764,426.115415 Z M487.531634,804.722155 C488.13382,804.08589 493.375088,807.676557 494.388621,807.676557 C495.402155,807.676557 499.858415,803.171384 500.460602,804.135203 C501.062788,805.099022 498.483249,809.627048 498.483249,810.801351 C498.483249,811.975655 504.197205,815.171413 503.78666,816.828027 C503.376114,818.484642 497.673785,816.983986 496.876349,817.504385 C496.078913,818.024783 494.594696,823.53066 493.375088,823.53066 C492.15548,823.53066 491.044522,818.811394 489.988891,817.961036 C488.933261,817.110678 483,817.130724 483,816.063467 C483,814.99621 487.65016,812.037397 487.957815,811.333777 C488.26547,810.630157 486.929447,805.358419 487.531634,804.722155 Z M492.232342,779 C493.178399,778.424998 496.274068,783.917522 497.496612,783.917522 C498.719157,783.917522 504.489307,782.175425 504.640084,783.296185 C504.79086,784.416946 501.667847,789.437367 501.667847,790.301793 C501.667847,791.166219 505.42511,797.30778 504.93632,798.236747 C504.44753,799.165713 497.974009,794.906368 497.001746,794.906368 C496.029483,794.906368 490.82598,800.409906 490.203884,799.832245 C489.581787,799.254584 491.249825,793.342392 490.253636,791.592699 C489.257447,789.843006 485,789.111531 485,788.217125 C485,787.32272 490.345165,786.009785 491.249825,785.462508 C492.154485,784.91523 491.286285,779.575002 492.232342,779 Z M463.915284,793 C465.026171,793 466.641902,798.048221 466.984467,799.102356 C467.327033,800.15649 474.289562,800.638543 474.343351,801.663275 C474.397141,802.688008 468.008288,805.692462 467.661848,806.800158 C467.315409,807.907854 467.936493,812.894536 466.876661,813.354936 C465.816828,813.815337 461.042568,809.97692 460.219318,809.656919 C459.396067,809.336918 454.989671,811.739205 454.411664,810.52621 C453.833656,809.313214 456.415773,805.677875 456.702953,804.354338 C456.990134,803.030801 451.364589,799.058139 452.05952,798.048221 C452.754451,797.038303 459.451908,798.705545 460.393449,798.705545 C461.334991,798.705545 462.804397,793 463.915284,793 Z" id="Combined-Shape" fill="#FFDB7A" opacity="0.599999964"></path>
        </g>
    </g>
</svg>