<?xml version="1.0" encoding="UTF-8"?>
<svg width="720px" height="30px" viewBox="0 0 720 30" version="1.1" xmlns="http://www.w3.org/2000/svg" xmlns:xlink="http://www.w3.org/1999/xlink">
    <!-- Generator: Sketch 42 (36781) - http://www.bohemiancoding.com/sketch -->
    <title>Triangles</title>
    <desc>Created with Sketch.</desc>
    <defs></defs>
    <g id="Stories" stroke="none" stroke-width="1" fill="none" fill-rule="evenodd">
        <g transform="translate(-152.000000, -366.000000)" id="Triangles" fill="#7ED2C6">
            <g transform="translate(152.000000, 366.000000)">
                <polygon id="Path-2" points="240 5.32252726e-17 300 0 270 30"></polygon>
                <polygon id="Path-2" points="180 5.32252726e-17 240 0 210 30"></polygon>
                <polygon id="Path-2" points="120 5.32252726e-17 180 0 150 30"></polygon>
                <polygon id="Path-2" points="60 5.32252726e-17 120 0 90 30"></polygon>
                <polygon id="Path-2" points="-5.68434189e-14 5.32252726e-17 60 0 30 30"></polygon>
                <polygon id="Path-2" points="300 5.32252726e-17 360 0 330 30"></polygon>
                <polygon id="Path-2" points="360 5.32252726e-17 420 0 390 30"></polygon>
                <polygon id="Path-2" points="420 5.32252726e-17 480 0 450 30"></polygon>
                <polygon id="Path-2" points="660 5.32252726e-17 720 0 690 30"></polygon>
                <polygon id="Path-2" points="600 5.32252726e-17 660 0 630 30"></polygon>
                <polygon id="Path-2" points="540 5.32252726e-17 600 0 570 30"></polygon>
                <polygon id="Path-2" points="480 5.32252726e-17 540 0 510 30"></polygon>
            </g>
        </g>
    </g>
</svg>