<?xml version="1.0" encoding="UTF-8"?>
<svg width="2160px" height="30px" viewBox="0 0 2160 30" version="1.1" xmlns="http://www.w3.org/2000/svg" xmlns:xlink="http://www.w3.org/1999/xlink">
    <!-- Generator: Sketch 43.2 (39069) - http://www.bohemiancoding.com/sketch -->
    <title>Triangles-long</title>
    <desc>Created with Sketch.</desc>
    <defs></defs>
    <g id="Stories" stroke="none" stroke-width="1" fill="none" fill-rule="evenodd">
        <g id="Artboard" transform="translate(-218.000000, -212.000000)" fill="#FFC56D">
            <g id="Triangles-long" transform="translate(218.000000, 212.000000)">
                <polygon id="Path-2" points="960 5.32252726e-17 1020 0 990 30"></polygon>
                <polygon id="Path-2" points="900 5.32252726e-17 960 0 930 30"></polygon>
                <polygon id="Path-2" points="840 5.32252726e-17 900 0 870 30"></polygon>
                <polygon id="Path-2" points="780 5.32252726e-17 840 0 810 30"></polygon>
                <polygon id="Path-2" points="720 5.32252726e-17 780 0 750 30"></polygon>
                <polygon id="Path-2" points="1020 5.32252726e-17 1080 0 1050 30"></polygon>
                <polygon id="Path-2" points="1080 5.32252726e-17 1140 0 1110 30"></polygon>
                <polygon id="Path-2" points="1140 5.32252726e-17 1200 0 1170 30"></polygon>
                <polygon id="Path-2" points="1380 5.32252726e-17 1440 0 1410 30"></polygon>
                <polygon id="Path-2" points="1320 5.32252726e-17 1380 0 1350 30"></polygon>
                <polygon id="Path-2" points="1260 5.32252726e-17 1320 0 1290 30"></polygon>
                <polygon id="Path-2" points="1200 5.32252726e-17 1260 0 1230 30"></polygon>
                <polygon id="Path-2" points="1680 5.32252726e-17 1740 0 1710 30"></polygon>
                <polygon id="Path-2" points="1620 5.32252726e-17 1680 0 1650 30"></polygon>
                <polygon id="Path-2" points="1560 5.32252726e-17 1620 0 1590 30"></polygon>
                <polygon id="Path-2" points="1500 5.32252726e-17 1560 0 1530 30"></polygon>
                <polygon id="Path-2" points="1440 5.32252726e-17 1500 0 1470 30"></polygon>
                <polygon id="Path-2" points="1740 5.32252726e-17 1800 0 1770 30"></polygon>
                <polygon id="Path-2" points="1800 5.32252726e-17 1860 0 1830 30"></polygon>
                <polygon id="Path-2" points="1860 5.32252726e-17 1920 0 1890 30"></polygon>
                <polygon id="Path-2" points="2100 5.32252726e-17 2160 0 2130 30"></polygon>
                <polygon id="Path-2" points="2040 5.32252726e-17 2100 0 2070 30"></polygon>
                <polygon id="Path-2" points="1980 5.32252726e-17 2040 0 2010 30"></polygon>
                <polygon id="Path-2" points="1920 5.32252726e-17 1980 0 1950 30"></polygon>
                <polygon id="Path-2" points="240 5.32252726e-17 300 0 270 30"></polygon>
                <polygon id="Path-2" points="180 5.32252726e-17 240 0 210 30"></polygon>
                <polygon id="Path-2" points="120 5.32252726e-17 180 0 150 30"></polygon>
                <polygon id="Path-2" points="60 5.32252726e-17 120 0 90 30"></polygon>
                <polygon id="Path-2" points="-5.68434189e-14 5.32252726e-17 60 0 30 30"></polygon>
                <polygon id="Path-2" points="300 5.32252726e-17 360 0 330 30"></polygon>
                <polygon id="Path-2" points="360 5.32252726e-17 420 0 390 30"></polygon>
                <polygon id="Path-2" points="420 5.32252726e-17 480 0 450 30"></polygon>
                <polygon id="Path-2" points="660 5.32252726e-17 720 0 690 30"></polygon>
                <polygon id="Path-2" points="600 5.32252726e-17 660 0 630 30"></polygon>
                <polygon id="Path-2" points="540 5.32252726e-17 600 0 570 30"></polygon>
                <polygon id="Path-2" points="480 5.32252726e-17 540 0 510 30"></polygon>
            </g>
        </g>
    </g>
</svg>